<?xml version="1.0" encoding="UTF-8"?>
<svg xmlns="http://www.w3.org/2000/svg" xmlns:xlink="http://www.w3.org/1999/xlink" width="0" height="0">
<defs>
<symbol viewBox="0 0 80 80" fill="none" id="btn-floating-write">
    <g filter="url(#6olo3rgo9a)">
        <circle cx="40" cy="40" r="32" fill="#fff"></circle>
        <circle cx="40" cy="40" r="31.5" stroke="#E5E5EA"></circle>
    </g>
    <path d="m45.429 38.681 3.256-3.256c.42-.42.42-1.1 0-1.52l-3.59-3.59c-.42-.42-1.1-.42-1.52 0l-3.257 3.256m5.11 5.11L34.426 49.685a1.075 1.075 0 0 1-.76.315H29v-4.665c0-.285.113-.559.315-.76L40.318 33.57m5.11 5.11-5.11-5.11" stroke="#000" stroke-width="2" stroke-linejoin="round"></path>
    <path d="M40.5 50H51" stroke="#000" stroke-width="2" stroke-linecap="round"></path>
    <defs>
        <filter id="6olo3rgo9a" x="4" y="6" width="72" height="72" filterUnits="userSpaceOnUse" color-interpolation-filters="sRGB">
            <feFlood flood-opacity="0" result="BackgroundImageFix"></feFlood>
            <feColorMatrix in="SourceAlpha" values="0 0 0 0 0 0 0 0 0 0 0 0 0 0 0 0 0 0 127 0" result="hardAlpha"></feColorMatrix>
            <feOffset dy="2"></feOffset>
            <feGaussianBlur stdDeviation="2"></feGaussianBlur>
            <feColorMatrix values="0 0 0 0 0.4 0 0 0 0 0.4 0 0 0 0 0.4 0 0 0 0.16 0"></feColorMatrix>
            <feBlend in2="BackgroundImageFix" result="effect1_dropShadow_7552_19136"></feBlend>
            <feBlend in="SourceGraphic" in2="effect1_dropShadow_7552_19136" result="shape"></feBlend>
        </filter>
    </defs>
</symbol>
<symbol viewBox="0 0 25 24" fill="none" id="btn-input-delete">
    <path d="m5 4.5 8 8m0 0 8 8m-8-8-8 8m8-8 8-8" stroke="currentColor" stroke-width="1.5" stroke-linecap="round"></path>
</symbol>
<symbol viewBox="0 0 24 24" fill="none" id="btn-thumb-delete">
    <rect opacity=".5" width="24" height="24" rx="12" fill="#000"></rect>
    <path opacity=".01" fill-rule="evenodd" clip-rule="evenodd" d="M6 18h12V6H6v12z" fill="#fff"></path>
    <path fill-rule="evenodd" clip-rule="evenodd" d="M7.722 7.721a.75.75 0 0 1 1.06 0l3.22 3.22 3.22-3.22a.75.75 0 0 1 1.06 1.061l-3.22 3.22 3.22 3.22a.75.75 0 1 1-1.06 1.06l-3.22-3.22-3.22 3.22a.75.75 0 0 1-1.06-1.06l3.22-3.22-3.22-3.22a.75.75 0 0 1 0-1.06z" fill="#fff"></path>
</symbol>
<symbol viewBox="0 0 6 10" fill="none" id="ic-arrow">
    <g clip-path="url(#83zpjqaeoa)">
        <path d="m1 .8 4.167 4.167L1 9.134" stroke="currentColor" stroke-width="1.5" stroke-linecap="round" stroke-linejoin="round"></path>
    </g>
    <defs>
        <clipPath id="83zpjqaeoa">
            <path fill="currentColor" d="M0 0h6v10H0z"></path>
        </clipPath>
    </defs>
</symbol>
<symbol viewBox="0 0 24 24" fill="none" id="ic-bookmark">
    <path d="M5.8 1.75h12.4c.966 0 1.75.784 1.75 1.75v17.57a.75.75 0 0 1-1.189.608l-5.738-4.137a1.75 1.75 0 0 0-2.047 0l-5.738 4.137a.75.75 0 0 1-1.188-.609V3.5c0-.966.783-1.75 1.75-1.75z" stroke="#000" stroke-width="1.5"></path>
</symbol>
<symbol viewBox="0 0 24 24" fill="none" id="ic-check">
    <rect width="24" height="24" rx="12" fill="transparent"></rect>
    <path d="m7 12 3.5 3.5 6-6" stroke="currentColor" stroke-width="2" stroke-linecap="round" stroke-linejoin="round"></path>
</symbol>
<symbol viewBox="0 0 16 16" fill="none" id="ic-close-s">
    <path d="m3 3 5 5m0 0 5 5M8 8l-5 5m5-5 5-5" stroke="currentColor" stroke-width="1.2" stroke-linecap="round"></path>
</symbol>
<symbol viewBox="0 0 48 48" fill="none" id="ic-dialog-warning">
    <circle cx="24" cy="24" r="22.75" transform="rotate(-180 24 24)" stroke="#DB0909" stroke-width="2.5"></circle>
    <circle cx="24" cy="33" r="1.5" transform="rotate(-180 24 33)" fill="#DB0909"></circle>
    <path d="M24 25.5v-12" stroke="#DB0909" stroke-width="2.5" stroke-linecap="round"></path>
</symbol>
<symbol viewBox="0 0 24 24" fill="none" id="ic-header-back">
    <path d="M2 12h20M2 12l6-6m-6 6 6 6" stroke="currentColor" stroke-width="1.5" stroke-linecap="round" stroke-linejoin="round"></path>
</symbol>
<symbol viewBox="0 0 24 24" fill="none" id="ic-header-close">
    <path d="m3 3 9 9m0 0 9 9m-9-9-9 9m9-9 9-9" stroke="currentColor" stroke-width="1.5" stroke-linecap="round"></path>
</symbol>
<symbol viewBox="0 0 24 24" fill="none" id="ic-home">
    <path d="M2 9.008a2 2 0 0 1 .857-1.642l8.572-5.968a1 1 0 0 1 1.142 0l8.572 5.968A2 2 0 0 1 22 9.008V19a3 3 0 0 1-3 3H5a3 3 0 0 1-3-3V9.008z" stroke="currentColor" stroke-width="1.5"></path>
    <path d="M12 15v6" stroke="currentColor" stroke-width="1.5" stroke-linecap="round"></path>
</symbol>
<symbol viewBox="0 0 22 22" fill="none" id="ic-info-text">
    <circle cx="11" cy="7.792" fill="currentColor" r=".917"></circle>
    <path d="M11 10.542v4.583" stroke="currentColor" stroke-width="1.5" stroke-linecap="round"></path>
    <circle cx="11" cy="11" r="10.083" stroke="currentColor" stroke-width="1.5"></circle>
</symbol>
<symbol viewBox="0 0 48 48" fill="none" id="ic-inquiry-add">
    <path fill="#fff" d="M0 0h48v48H0z"></path>
    <circle cx="24" cy="24" r="24" fill="#F8F8F8"></circle>
    <path d="M14 24h20M24 14v20" stroke="#000" stroke-width="1.5" stroke-linecap="round"></path>
</symbol>
<symbol viewBox="0 0 24 24" fill="none" id="ic-inquiry-reply">
    <g clip-path="url(#avs47qujca)">
        <path d="M1 6v6a3 3 0 0 0 3 3h10m0 0-4-4m4 4-4 4" stroke="#000" stroke-width="1.5" stroke-linecap="round" stroke-linejoin="round"></path>
    </g>
    <defs>
        <clipPath id="avs47qujca">
            <path fill="#fff" d="M0 0h24v24H0z"></path>
        </clipPath>
    </defs>
</symbol>
<symbol viewBox="0 0 16 16" fill="none" id="ic-kebab">
    <path fill-rule="evenodd" clip-rule="evenodd" d="M9.5 3A1.25 1.25 0 1 1 7 3a1.25 1.25 0 0 1 2.5 0zm0 5A1.25 1.25 0 1 1 7 8a1.25 1.25 0 0 1 2.5 0zm-1.25 6.25a1.25 1.25 0 1 0 0-2.5 1.25 1.25 0 0 0 0 2.5z" fill="#999"></path>
</symbol>
<symbol viewBox="0 0 64 100" fill="none" id="ic-logo">
    <mask id="8xv81bagwa" style="mask-type:alpha" maskUnits="userSpaceOnUse" x="0" y="0" width="64" height="100">
        <path fill="#fff" d="M0 0h64v100H0z"></path>
    </mask>
    <g mask="url(#8xv81bagwa)">
        <path fill="#fff" d="M0 0h64v100H0z"></path>
        <path fill="#fff" d="M1 5.7h62v88.49H1z"></path>
        <path d="M8.767 69.862h-4.64v10.7H6.47v-2.584h2.298c1.255 0 2.27-.42 3.018-1.221.761-.787 1.157-1.6 1.17-2.752 0-1.404-.408-2.177-1.17-2.95-.747-.772-1.762-1.179-3.018-1.193zm1.326 5.335c-.324.337-.804.506-1.452.52H6.469v-3.623h2.158c.649 0 1.142.183 1.467.506.338.337.508.772.508 1.306 0 .533-.17.955-.522 1.292h.014zM54.218 62.054v-2.036h3.934V57.77h-3.934v-1.952h5.683v-2.247h-8.024V64.3h8.094v-2.246h-5.753zM22.828 69.847h-2.34V80.59h8.01v-2.248h-5.67v-8.495zM12.152 64.314v-2.26H6.469v-8.482H4.128v10.742H12.152zM37.239 60.074h4.005v-2.261H37.24v-1.994h5.683v-2.247h-8.024V64.3h2.34v-4.226zM40.878 76.419c0 .646-.169 1.138-.507 1.46-.339.352-.776.52-1.312.52s-.96-.168-1.298-.52c-.338-.322-.507-.8-.521-1.445v-6.587h-2.342v6.629c.014 1.25.438 2.26 1.227 3.005.79.758 1.777 1.152 2.933 1.166 1.185 0 2.172-.407 2.947-1.166.776-.744 1.185-1.755 1.199-3.005v-6.629h-2.327v6.573l.001-.001zM56.827 74.256c-1.945-.478-2.397-.646-2.397-1.306 0-.31.253-.885 1.523-.899 1.269-.014 2.552.73 2.552.73l.663-2.288s-1.226-.688-3.088-.688c-1.861 0-2.552.505-3.13.983-.578.478-.889 1.418-.889 2.022 0 .829.226 2.12 1.495 2.794 1.27.674 3.879.758 3.836 1.84-.028.843-1.086.941-1.72.941-.635 0-2.229-.35-3.089-.912l-.521 2.19s1.34 1.012 3.695 1.012c0 0 2.665.084 3.638-1.686l.028-.028s.719-1.39.127-2.766c-.55-1.263-1.763-1.713-2.722-1.937v-.002zM23.998 53.572h-2.34v10.742h2.34V53.572zM4.077 86.542h-.302v1.113h2.29v6.45h1.153v-6.45h2.289v-1.112h-5.43zM19.352 92.811l-.007-.014a7.796 7.796 0 0 0-.462-.772l-.007-.009a6.021 6.021 0 0 0-.543-.633 4.787 4.787 0 0 0-.168-.16c.057-.03.114-.063.17-.099a2.36 2.36 0 0 0 .587-.507c.165-.205.286-.428.384-.68.106-.276.144-.581.144-.886 0-.427-.079-.787-.22-1.11l-.003-.006-.274.127.274-.127a2.16 2.16 0 0 0-.611-.792l-.006-.005-.004-.003a2.444 2.444 0 0 0-.898-.456 3.845 3.845 0 0 0-1.08-.136h-2.66v7.563h1.153V91.56h1.295c.195 0 .406.064.637.2.235.158.444.348.64.575.2.25.362.494.49.766.133.28.21.534.242.745v.257h1.297l-.062-.352a3.874 3.874 0 0 0-.308-.94zm-2.367-2.382h-1.863V87.62h1.56c.57 0 .951.144 1.22.383.257.23.396.564.396 1.03 0 .467-.138.8-.397 1.03-.215.193-.518.322-.917.365l.001.002zm1.65 1.767.203-.14-.202.14zm.444.742.183-.085-.183.085zM25.736 86.542h-.302v7.562h1.171V86.542h-.869zM37.976 90.023a1.63 1.63 0 0 0 .27-.353l.003-.003.004-.006c.099-.16.16-.301.216-.468l.004-.01a1.67 1.67 0 0 0 .087-.572c0-.274-.063-.538-.139-.766l-.008-.021a2.023 2.023 0 0 0-.408-.65h-.001l-.01-.012a2.012 2.012 0 0 0-.655-.449l-.086.185.086-.186-.019-.007-.108.28.108-.28a2.51 2.51 0 0 0-.907-.162h-3.335v7.527h3.407c.775 0 1.407-.188 1.87-.608.466-.42.685-1.003.685-1.689 0-.443-.15-.842-.416-1.19a2.224 2.224 0 0 0-.645-.559l-.003-.001zm.157-2.085.16-.053-.16.053zm-3.92-.283h2.252c.149 0 .264.026.381.076.135.075.223.142.296.225a.91.91 0 0 1 .19.306c.05.147.074.253.074.365 0 .156-.015.28-.055.399l-.005.014-.003.016.294.065-.294-.065a.667.667 0 0 1-.148.294l.183.156-.184-.157-.01.015a.765.765 0 0 1-.267.23l-.011.006.146.263-.146-.263a.651.651 0 0 1-.25.079l-.011-.01h-2.432v-2.015.001zm3.832 4.788-.28-.111a.821.821 0 0 1-.238.326c-.122.106-.25.19-.401.245l.103.282-.103-.282-.01.003c-.075.03-.17.052-.277.067H34.23V90.8h2.52c.156 0 .295.028.438.085.158.063.276.132.36.216l.214-.212-.214.213.017.015a.783.783 0 0 1 .218.307l.005.01c.05.112.08.264.08.445a.887.887 0 0 1-.093.43l-.01.024.281.111zM44.208 86.542h-.3v7.562h5.25v-1.13H45.06v-2.138h3.106V89.706H45.06v-2.05h4.098v-1.113h-4.95zM58.734 90.533a3.584 3.584 0 0 0-.755-.463 6.069 6.069 0 0 0-.87-.332 58.62 58.62 0 0 1-.91-.297c-.271-.109-.47-.186-.634-.29l-.162.253.162-.254-.017-.01a.907.907 0 0 1-.338-.291.614.614 0 0 1-.11-.38c0-.171.04-.305.105-.42.055-.1.153-.19.294-.285.118-.079.276-.14.473-.188.18-.045.384-.062.62-.062.395 0 .756.066 1.041.2l.005.002c.34.152.642.32.926.52l.23.161.18-.28.093-.144.19-.298.154-.239-.231-.166a5.167 5.167 0 0 0-1.149-.62 3.968 3.968 0 0 0-1.458-.268 4.23 4.23 0 0 0-1.014.115 2.651 2.651 0 0 0-.84.36c-.261.174-.449.407-.59.646-.16.273-.217.597-.217.93 0 .331.085.634.236.893a1.932 1.932 0 0 0 .607.628h.001c.254.175.524.309.824.42.288.108.598.218.93.309h.003c.25.067.485.15.721.251.227.097.421.21.599.338.185.134.305.247.38.372.08.132.116.256.116.41a.728.728 0 0 1-.109.417 1.186 1.186 0 0 1-.324.323 1.47 1.47 0 0 1-.48.202 4.028 4.028 0 0 1-.666.065c-.373 0-.783-.064-1.214-.213l-.099.282.1-.283-.014-.004a3.871 3.871 0 0 1-1.187-.609l-.267-.194-.17.283-.283.477-.153.257.258.154c.148.089.363.235.56.342.203.11.43.224.7.32.264.094.546.168.844.224h.003c.316.056.652.093 1.028.093.342 0 .675-.037.995-.137l.006-.002a2.89 2.89 0 0 0 .813-.416c.251-.188.438-.417.582-.68.153-.285.213-.603.213-.938a1.82 1.82 0 0 0-.19-.823 2.052 2.052 0 0 0-.54-.664v.003zM1.013 21.512c0 2.014 1.119 2.765 3.448 4.674 4.935 4.028 8.278 7.372 12.778 13.164 2.014 2.594 5.567 5.411 9.923 5.253 6.37-.21 8.91-3.344 13.791-6.424 5.04-3.186 8.91-3.923 15.91-7.965 7.002-4.041 8.33-14.64 2.33-20.748-4.08-4.291-12.568-5.62-18.03-.21-6.474 6.372-8.277 8.333-15.014 10.61-7.91 1.962-15.069.264-18.464-.908-1.066-.368-2.224-.895-3.29-.842C2.54 18.22 1 19.656 1 21.512" fill="#000"></path>
    </g>
</symbol>
<symbol viewBox="0 0 24 24" fill="none" id="ic-mission-comment">
    <path d="M20.764 2H3.236C2.276 2 1.5 2.768 1.5 3.72v13.006c0 .951.776 1.72 1.736 1.72h4.11V22l6.215-3.554h7.203c.96 0 1.736-.769 1.736-1.72V3.72c0-.952-.776-1.72-1.736-1.72zM5.5 7.597h12.8M5.5 10.945h7.017" stroke="currentColor" stroke-width="1.5" stroke-linecap="round" stroke-linejoin="round"></path>
</symbol>
<symbol viewBox="0 0 24 24" fill="none" id="ic-mission-follow">
    <path d="m16.202 9.906-2.32 2.32a2.93 2.93 0 0 1-4.152 0 2.93 2.93 0 0 1 0-4.151l2.32-2.32-.061.06 1.2-1.2c2.32-2.32 5.974-2.432 8.162-.244 2.188 2.188 2.076 5.84-.244 8.16l-7.673 7.673a2.04 2.04 0 0 1-2.88 0l-6.472-6.471-1.2-1.201C.562 10.212.46 6.559 2.637 4.37c1.893-1.883 4.875-2.056 7.144-.58" stroke="currentColor" stroke-width="1.5" stroke-linecap="round" stroke-linejoin="round"></path>
</symbol>
<symbol viewBox="0 0 24 24" fill="none" id="ic-mission-image-upload">
    <path d="M20.5 3h-16A1.5 1.5 0 0 0 3 4.5v16A1.5 1.5 0 0 0 4.5 22h16a1.5 1.5 0 0 0 1.5-1.5v-16A1.5 1.5 0 0 0 20.5 3z" stroke="currentColor" stroke-width="1.5" stroke-linecap="round" stroke-linejoin="round"></path>
    <path d="m3 17 5.908-4.907a.43.43 0 0 1 .573.035l3.327 3.33 3.118-2.246a.423.423 0 0 1 .495 0L22 17" stroke="currentColor" stroke-width="1.5" stroke-linecap="round" stroke-linejoin="round"></path>
    <path d="M16.5 9a1.5 1.5 0 1 0 0-3 1.5 1.5 0 0 0 0 3z" stroke="currentColor" stroke-width="1.3" stroke-linecap="round" stroke-linejoin="round"></path>
</symbol>
<symbol viewBox="0 0 24 24" fill="none" id="ic-mission-invitation">
    <path d="m19.92 7.7 2.83 2.38v10.08c0 .92-.74 1.66-1.66 1.66H3.41c-.92 0-1.66-.74-1.66-1.66V10.08l2.9-2.49M8.35 4.44l2.63-2.29c.61-.53 1.51-.53 2.14-.02l2.83 2.31" stroke="currentColor" stroke-width="1.5" stroke-linecap="round" stroke-linejoin="round"></path>
    <path d="M4.75 11.96V5.64c0-.55.45-1 1-1h13c.55 0 1 .45 1 1v6.32" stroke="currentColor" stroke-width="1.5" stroke-linecap="round" stroke-linejoin="round"></path>
    <path d="M22.75 10.08v10.08c0 .92-.74 1.66-1.66 1.66H3.41c-.92 0-1.66-.74-1.66-1.66V10.08l9.4 6.13c.54.35 1.24.36 1.79.02l9.81-6.15z" stroke="currentColor" stroke-width="1.5" stroke-linecap="round" stroke-linejoin="round"></path>
    <path d="M10.3 10h4m-2-2v4" stroke="currentColor" stroke-width="1.4" stroke-linecap="round"></path>
</symbol>
<symbol viewBox="0 0 24 24" fill="none" id="ic-mission-list-done">
    <path d="M15.41 3.133A9.363 9.363 0 0 0 12 2.5c-5.246 0-9.5 4.254-9.5 9.5s4.254 9.5 9.5 9.5 9.5-4.254 9.5-9.5c0-.767-.091-1.514-.264-2.228" stroke="currentColor" stroke-width="1.5" stroke-linecap="round" stroke-linejoin="round"></path>
    <path d="m7.778 10.417 3.803 3.958 9.596-10.556" stroke="currentColor" stroke-width="1.5" stroke-linecap="round" stroke-linejoin="round"></path>
</symbol>
<symbol viewBox="0 0 24 24" fill="none" id="ic-mission-poll">
    <path d="M2.25 8.25h19.5V20.5c0 .69-.56 1.25-1.25 1.25h-17c-.69 0-1.25-.56-1.25-1.25V8.25z" stroke="currentColor" stroke-width="1.5"></path>
    <path d="M8.8 14.333 11.249 17l4.408-4" stroke="currentColor" stroke-width="1.4" stroke-linecap="round" stroke-linejoin="round"></path>
    <rect x="1.25" y="2.75" width="21.5" height="5.5" rx="1.25" stroke="currentColor" stroke-width="1.5"></rect>
</symbol>
<symbol viewBox="0 0 24 24" fill="none" id="ic-mission-simple">
    <g clip-path="url(#i65mmxp1sa)" stroke="currentColor" stroke-width="1.5" stroke-linecap="round" stroke-linejoin="round">
        <path d="M15.6 8.454 1.5 13.337l6.182 2.71 2.935 6.407 4.983-14zM14.02 1v3.112M22.773 9.753h-3.112M17.81 5.96l2.432-2.431M17.81 13.837l2.432 2.431M9.932 5.96 7.5 3.53"></path>
    </g>
    <defs>
        <clipPath id="i65mmxp1sa">
            <path fill="#fff" d="M0 0h24v24H0z"></path>
        </clipPath>
    </defs>
</symbol>
<symbol viewBox="0 0 24 24" fill="none" id="ic-mission-sns-share">
    <path d="M21.489 2 3.77 6.363c-1.491.367-1.736 2.382-.378 3.094l8.08 2.56L21.49 2zM21.502 2.011 17.14 19.73c-.367 1.491-2.381 1.736-3.094.378l-2.56-8.08L21.502 2.011z" stroke="currentColor" stroke-width="1.5" stroke-linecap="round" stroke-linejoin="round"></path>
</symbol>
<symbol viewBox="0 0 24 24" fill="none" id="ic-mission-text">
    <path d="M21 12.51v7.99c0 .83-.67 1.5-1.5 1.5h-16c-.83 0-1.5-.67-1.5-1.5v-16C2 3.67 2.67 3 3.5 3h7.95" stroke="currentColor" stroke-width="1.5" stroke-linecap="round" stroke-linejoin="round"></path>
    <path d="m20.143 7.945 2.605-2.605a.86.86 0 0 0 0-1.216l-2.872-2.872a.86.86 0 0 0-1.216 0l-2.605 2.605m4.088 4.088-8.803 8.803a.86.86 0 0 1-.608.252H7v-3.732a.86.86 0 0 1 .252-.608l8.803-8.803m4.088 4.088-4.088-4.088" stroke="currentColor" stroke-width="1.5" stroke-linejoin="round"></path>
</symbol>
<symbol viewBox="0 0 24 24" fill="none" id="ic-mission-write-title">
    <path d="m15.965 11.38 2.767-2.769a.913.913 0 0 0 0-1.292l-3.051-3.051a.913.913 0 0 0-1.292 0L11.62 7.035m4.344 4.344L6.61 20.732a.913.913 0 0 1-.646.268H2v-3.965c0-.243.096-.475.268-.646l9.353-9.354m4.344 4.344L11.62 7.035" stroke="currentColor" stroke-width="1.5" stroke-linejoin="round"></path>
    <path d="M11 21h11" stroke="currentColor" stroke-width="1.5" stroke-linecap="round"></path>
</symbol>
<symbol viewBox="0 0 86 70" fill="none" id="ic-pass-deadline">
    <g opacity=".3" stroke="#fff">
        <circle cx="44" cy="35" r="34.5"></circle>
        <circle cx="44" cy="35" r="31.75" stroke-width=".5"></circle>
        <circle cx="44" cy="35" r="19.75" stroke-width=".5"></circle>
    </g>
    <mask id="6s55cayaua" fill="#fff">
        <path d="M2 19h84v33H2V19z"></path>
    </mask>
    <path d="M2 19h84v33H2V19z" fill="#000"></path>
    <path d="M2 20h84v-2H2v2zm84 31H2v2h84v-2z" fill="#fff" mask="url(#6s55cayaua)"></path>
    <path d="M1.342 30.128h6.832v9.552H1.342v-9.552zm5.184 1.328H2.99v6.896h3.536v-6.896zm3.952-2.752h1.68v14.624h-1.68V28.704zm1.296 5.696h2.656v1.392h-2.656V34.4zm13.002-5.696h1.68v8.224h-1.68v-8.224zm1.216 3.392h2.528v1.376h-2.527v-1.376zM20.665 29.6h1.776c0 3.776-2.495 6.416-6.816 7.568l-.655-1.328c3.696-.976 5.696-2.976 5.696-5.44v-.8zm-5.04 0h6.016v1.344h-6.016V29.6zm1.504 7.968h9.328v5.584h-9.328v-5.584zm7.68 1.344h-6.032v2.896h6.032v-2.896zm5.531-4.08h7.552v1.36H30.34v-1.36zm2.896 1.088h1.68v3.248h-1.68V35.92zm-2.896-5.872h7.472v1.344H32.02v3.888h-1.68v-5.232zm9.28-1.36h1.68v14.656h-1.68V28.688zM29.54 40.304l-.208-1.376c2.832 0 6.352-.032 9.408-.384l.128 1.232c-3.184.496-6.576.544-9.328.528zm17.547-2.768h1.296v.72c0 2.08-1.104 4.064-3.296 4.88l-.832-1.232c1.872-.672 2.832-2.208 2.832-3.648v-.72zm.4 0h1.232v.72c0 1.472.784 3.04 2.576 3.776l-.704 1.248c-2.208-.848-3.104-2.96-3.104-5.024v-.72zm4.976 0h1.216v.72c0 1.872-.912 4.112-3.088 5.024l-.704-1.248c1.776-.816 2.576-2.48 2.576-3.776v-.72zm.368 0h1.28v.72c0 1.536.928 3.024 2.848 3.648l-.848 1.232c-2.208-.784-3.28-2.704-3.28-4.88v-.72zm-2.192-5.296h3.68v1.376h-3.68V32.24zm-3.152-2.752c2.16 0 3.792 1.44 3.792 3.472 0 2.016-1.632 3.456-3.792 3.456-2.176 0-3.792-1.44-3.792-3.456 0-2.032 1.616-3.472 3.792-3.472zm0 1.392c-1.264 0-2.192.832-2.192 2.08 0 1.232.928 2.064 2.192 2.064 1.248 0 2.192-.832 2.192-2.064 0-1.248-.944-2.08-2.192-2.08zm6.432-2.176h1.68v8.272h-1.68v-8.272zm7.723 1.072c2.16 0 3.696 2 3.696 5.152s-1.536 5.168-3.696 5.168-3.696-2.016-3.696-5.168 1.536-5.152 3.696-5.152zm0 1.52c-1.248 0-2.096 1.36-2.096 3.632 0 2.288.848 3.664 2.096 3.664 1.264 0 2.112-1.376 2.112-3.664 0-2.272-.848-3.632-2.112-3.632zm6.528-2.608h1.664v14.656h-1.664V28.688zm-3.344 5.456h4.064v1.344h-4.064v-1.344zm10.186 2.048h1.665v4.24H75.01v-4.24zm5.36 0h1.68v4.24h-1.68v-4.24zm-8.447 3.968H85.17v1.376H71.923V40.16zm6.591-10.624c3.12 0 5.376 1.504 5.376 3.84 0 2.32-2.256 3.824-5.376 3.824-3.12 0-5.376-1.504-5.376-3.824 0-2.336 2.257-3.84 5.377-3.84zm0 1.312c-2.207 0-3.743.976-3.743 2.528 0 1.536 1.535 2.512 3.743 2.512 2.209 0 3.745-.976 3.745-2.512 0-1.552-1.537-2.528-3.745-2.528z" fill="#fff"></path>
</symbol>
<symbol viewBox="0 0 80 80" fill="none" id="ic-pass-done">
    <circle cx="40" cy="40" r="40" fill="#000"></circle>
    <path d="M25 38.333 36.053 50 55 30" stroke="#fff" stroke-width="5" stroke-linecap="round" stroke-linejoin="round"></path>
</symbol>
<symbol viewBox="0 0 72 72" fill="none" id="ic-pass-empty">
    <mask id="clfvy1d2oa" style="mask-type:alpha" maskUnits="userSpaceOnUse" x="0" y="0" width="72" height="72">
        <path fill="#fff" d="M0 0h72v72H0z"></path>
    </mask>
    <g mask="url(#clfvy1d2oa)">
        <path d="M.015 29.363c0 2.339 1.3 3.21 4.004 5.427 5.731 4.678 9.613 8.561 14.84 15.288 2.338 3.012 6.464 6.283 11.522 6.1 7.397-.245 10.347-3.883 16.017-7.46 5.853-3.7 10.346-4.557 18.476-9.25 8.13-4.693 9.674-17 2.705-24.094-4.738-4.984-14.595-6.528-20.937-.245-7.519 7.4-9.613 9.678-17.437 12.323-9.185 2.277-17.499.305-21.442-1.055-1.237-.428-2.582-1.04-3.82-.979C1.788 25.541 0 27.207 0 29.363" fill="#E5E5EA"></path>
    </g>
</symbol>
<symbol viewBox="0 0 24 24" fill="none" id="ic-pass-s">
    <path fill-rule="evenodd" clip-rule="evenodd" d="M15 4.25a.75.75 0 0 1 .75.75v2a.75.75 0 0 1-1.5 0V5a.75.75 0 0 1 .75-.75zm0 6a.75.75 0 0 1 .75.75v2a.75.75 0 0 1-1.5 0v-2a.75.75 0 0 1 .75-.75zm.75 6.75a.75.75 0 0 0-1.5 0v2a.75.75 0 0 0 1.5 0v-2z" fill="#000"></path>
    <path d="M19 5H5a2 2 0 0 0-2 2v10a2 2 0 0 0 2 2h14a2 2 0 0 0 2-2V7a2 2 0 0 0-2-2z" stroke="#000" stroke-width="1.5" stroke-linecap="round" stroke-linejoin="round"></path>
</symbol>
<symbol viewBox="0 0 24 24" fill="none" id="ic-poll-result">
    <path d="M10 21h-.75v.75H10V21zm4 0v.75h.75V21H14zm-8 0v.75h.75V21H6zm-4 0h-.75v.75H2V21zm20 0v.75h.75V21H22zm-4 0h-.75v.75H18V21zM10.75 4a.25.25 0 0 1 .25-.25v-1.5A1.75 1.75 0 0 0 9.25 4h1.5zm0 17V4h-1.5v17h1.5zm3.25-.75h-4v1.5h4v-1.5zM13.25 4v17h1.5V4h-1.5zM13 3.75a.25.25 0 0 1 .25.25h1.5A1.75 1.75 0 0 0 13 2.25v1.5zm-2 0h2v-1.5h-2v1.5zm-8 6.5A1.75 1.75 0 0 0 1.25 12h1.5a.25.25 0 0 1 .25-.25v-1.5zm2 0H3v1.5h2v-1.5zM6.75 12A1.75 1.75 0 0 0 5 10.25v1.5a.25.25 0 0 1 .25.25h1.5zm0 9v-9h-1.5v9h1.5zM2 21.75h4v-1.5H2v1.5zM1.25 12v9h1.5v-9h-1.5zM19 13.25A1.75 1.75 0 0 0 17.25 15h1.5a.25.25 0 0 1 .25-.25v-1.5zm2 0h-2v1.5h2v-1.5zM22.75 15A1.75 1.75 0 0 0 21 13.25v1.5a.25.25 0 0 1 .25.25h1.5zm0 6v-6h-1.5v6h1.5zm-4.75.75h4v-1.5h-4v1.5zM17.25 15v6h1.5v-6h-1.5z" fill="currentColor"></path>
</symbol>
<symbol viewBox="0 0 16 16" fill="none" id="ic-poll-selected">
    <path d="M1.707 6.714A1 1 0 1 0 .293 8.128l1.414-1.414zM5.79 12.21l-.707.708a1 1 0 0 0 1.415 0l-.708-.707zm8.918-7.503a1 1 0 0 0-1.414-1.414l1.414 1.414zM.293 8.128l4.79 4.79 1.414-1.415-4.79-4.79L.293 8.129zm6.204 4.79 8.21-8.21-1.414-1.415-8.21 8.21 1.414 1.415z" fill="currentColor"></path>
</symbol>
<symbol viewBox="0 0 24 24" fill="none" id="ic-rank-congrats">
    <g clip-path="url(#m27aifmc8a)" stroke="#000">
        <path d="M15 9.5 14 12" stroke-width="1.5" stroke-linecap="round" stroke-linejoin="round"></path>
        <circle cx="10.75" cy="5.25" r="2.75" stroke-width="1.4"></circle>
        <path d="M6.5 9.5 2.137 20.845a1 1 0 0 0 1.109 1.343L15.5 20" stroke-width="1.5" stroke-linecap="round" stroke-linejoin="round"></path>
        <path d="M21.657 7.143 19.93 2.826a.5.5 0 0 0-.864-.114l-2.59 3.453a.5.5 0 0 0 .302.79l4.317.864a.5.5 0 0 0 .562-.676zM16 15l3 3 3-3-3-3-3 3z" stroke-width="1.4" stroke-linejoin="round"></path>
    </g>
    <defs>
        <clipPath id="m27aifmc8a">
            <path fill="#fff" d="M0 0h24v24H0z"></path>
        </clipPath>
    </defs>
</symbol>
<symbol viewBox="0 0 24 24" fill="none" id="ic-rank-deadline">
    <circle cx="12" cy="12" r="10.25" stroke="#000" stroke-width="1.5"></circle>
    <path fill-rule="evenodd" clip-rule="evenodd" d="M7.722 7.721a.75.75 0 0 1 1.06 0l3.22 3.22 3.22-3.22a.75.75 0 0 1 1.06 1.06l-3.22 3.22 3.22 3.22a.75.75 0 0 1-1.06 1.06l-3.22-3.219-3.22 3.22a.75.75 0 1 1-1.06-1.06l3.22-3.22-3.22-3.22a.75.75 0 0 1 0-1.06z" fill="#000"></path>
</symbol>
<symbol viewBox="0 0 36 36" fill="none" id="ic-rank-topranking">
    <path d="M1.402 13.365c.1.979.59 1.468 1.157 1.501.367-.867.611-1.846.634-2.758.01-.901-.234-1.557-.779-1.757-.7.845-1.101 2.046-1.012 3.014zM4.602 14.432c-.578.523-1.212.745-1.735.512.056-.923.534-1.891 1.224-2.392.69-.511 1.357-.444 1.79-.077-.255.723-.69 1.434-1.268 1.957h-.01zM.486 18.138c.445.945 1.1 1.279 1.702 1.123.1-.99.01-2.046-.29-2.959-.3-.9-.812-1.468-1.434-1.479-.412 1.068-.412 2.38.01 3.315h.012zM4.146 18.147c-.4.723-1.012 1.135-1.623 1.079-.234-.945-.09-2.058.456-2.792.534-.745 1.234-.912 1.801-.7 0 .823-.21 1.69-.634 2.413zM1.134 23.254c.779.812 1.58.89 2.147.512-.245-1.023-.701-2.047-1.302-2.859-.623-.812-1.312-1.212-1.968-1.012-.09 1.213.389 2.547 1.123 3.36zM4.918 21.974c-.19.834-.657 1.468-1.29 1.646-.568-.845-.812-2.013-.479-2.925.3-.912.979-1.312 1.646-1.279.245.834.356 1.713.134 2.57l-.011-.012zM3.83 28.19c1.157.477 1.991.155 2.347-.49-.723-.846-1.557-1.658-2.502-2.214-.935-.556-1.791-.712-2.392-.267.39 1.268 1.39 2.492 2.536 2.97h.011zM6.987 25.232c.122.846-.033 1.669-.567 2.158-.946-.511-1.646-1.59-1.669-2.591-.033-1.012.523-1.646 1.213-1.88.545.667.9 1.446 1.023 2.302v.011zM9.264 31.496c.69-.122 1.168-.478 1.434-.812.267-.356.345-.745.278-1.146-1.167-.211-2.369-.389-3.548-.411-1.179-.011-2.113.256-2.447.979 1.068 1.09 2.903 1.712 4.283 1.39zM10.138 26.87c.511.645.945 1.435.834 2.236-1.112.244-2.402-.3-2.914-1.213-.534-.912-.256-1.768.278-2.347.734.278 1.28.668 1.802 1.324zM4.323 9.959c.511-.667 1.257-.99 1.813-.957-.045.579-.312 1.202-.768 1.78-.456.567-1 .99-1.557 1.168-.167-.545-.022-1.335.49-1.991h.022zM34.598 13.365c-.1.979-.59 1.468-1.157 1.501-.367-.867-.611-1.846-.634-2.758-.01-.901.234-1.557.779-1.757.7.845 1.101 2.046 1.012 3.014zM31.398 14.432c.578.523 1.212.745 1.735.512-.056-.923-.534-1.891-1.224-2.392-.69-.511-1.357-.444-1.79-.077.255.723.69 1.434 1.268 1.957h.01zM35.514 18.138c-.445.945-1.1 1.279-1.702 1.123-.1-.99-.01-2.046.29-2.959.3-.9.812-1.468 1.434-1.479.412 1.068.412 2.38-.01 3.315h-.012zM31.854 18.147c.4.723 1.012 1.135 1.623 1.079.234-.945.09-2.058-.456-2.792-.534-.745-1.234-.912-1.802-.7 0 .823.212 1.69.634 2.413zM34.866 23.254c-.779.812-1.58.89-2.147.512.245-1.023.701-2.047 1.302-2.859.623-.812 1.312-1.212 1.968-1.012.09 1.213-.389 2.547-1.123 3.36zM31.082 21.974c.19.834.656 1.468 1.29 1.646.568-.845.812-2.013.479-2.925-.3-.912-.979-1.312-1.646-1.279-.245.834-.356 1.713-.134 2.57l.011-.012zM32.17 28.19c-1.157.477-1.991.155-2.347-.49.723-.846 1.557-1.658 2.502-2.214.935-.556 1.791-.712 2.392-.267-.39 1.268-1.39 2.492-2.536 2.97h-.011zM29.013 25.232c-.122.846.033 1.669.567 2.158.946-.511 1.646-1.59 1.669-2.591.033-1.012-.523-1.646-1.213-1.88a4.658 4.658 0 0 0-1.023 2.302v.011zM26.736 31.496c-.69-.122-1.168-.478-1.434-.812a1.446 1.446 0 0 1-.279-1.146c1.168-.211 2.37-.389 3.549-.411 1.179-.011 2.113.256 2.447.979-1.068 1.09-2.903 1.712-4.283 1.39zM25.862 26.87c-.511.645-.945 1.435-.834 2.236 1.112.244 2.402-.3 2.914-1.213.534-.912.256-1.768-.278-2.347-.734.278-1.28.668-1.802 1.324zM31.677 9.959c-.511-.667-1.257-.99-1.813-.957.045.579.312 1.202.768 1.78.456.567 1 .99 1.557 1.168.167-.545.022-1.335-.49-1.991h-.022z" fill="#09F"></path>
</symbol>
<symbol viewBox="0 0 80 80" fill="none" id="ic-rank-trophy">
    <path d="M15.817 50.233c.404.452.865.725 1.337.842.482.115.97.071 1.418-.084 0-.063 0-.128-.003-.191 0-.066.003-.128 0-.194 0-.128-.01-.256-.027-.384a4.202 4.202 0 0 0-.172-.75 3.467 3.467 0 0 0-.281-.726c-.12-.234-.284-.464-.436-.684-.644-.868-1.61-1.394-2.556-1.323a4.612 4.612 0 0 0-.13.916c-.01.156-.01.311 0 .467.005.079.007.155.018.231.014.08.027.156.047.232.068.309.166.606.291.884.063.14.134.273.213.4.085.13.183.25.284.36l-.003.004zM21.443 49.447c-.27.374-.633.704-1.045.955-.398.25-.845.423-1.323.477-.03-.054-.06-.109-.087-.166a3.227 3.227 0 0 1-.158-.537 2.754 2.754 0 0 1-.058-.748c.03-.25.088-.499.178-.733.093-.235.196-.456.373-.655.674-.807 1.65-1.045 2.594-.903a1.982 1.982 0 0 1 .071 1.023 2.152 2.152 0 0 1-.207.72c-.047.095-.101.191-.161.29a2.865 2.865 0 0 1-.18.28l.003-.003zM17.126 55.207c.26.167.548.268.821.33.276.063.543.08.802.06a2.72 2.72 0 0 0 1.4-.54 3.522 3.522 0 0 0-.27-.744c-.124-.235-.233-.475-.391-.693-.322-.43-.682-.835-1.167-1.162a5.323 5.323 0 0 0-.369-.224 3.261 3.261 0 0 0-.362-.188 3.402 3.402 0 0 0-.759-.242 2.722 2.722 0 0 0-1.508.106c.008.325.052.657.128.982.08.322.221.63.371.922.295.592.78 1.069 1.307 1.396l-.003-.003zM22.581 52.6a4.965 4.965 0 0 1-.314.666 4.284 4.284 0 0 1-.436.608c-.333.38-.74.701-1.2.906a3.188 3.188 0 0 1-.47-.611c-.138-.219-.21-.475-.272-.726-.13-.499-.068-1.047.131-1.535a2.16 2.16 0 0 1 .175-.347 2.742 2.742 0 0 1 .81-.804c.42-.273.905-.434 1.404-.51.115.163.2.335.254.515.06.18.117.363.128.56.011.395-.019.81-.204 1.276l-.006.002zM19.872 59.665c.155.038.308.065.458.079a2.899 2.899 0 0 0 1.271-.183c.513-.194.947-.529 1.285-.95-.549-.945-1.397-1.69-2.564-2.023-1.124-.357-2.346-.226-3.191.434.42 1.265 1.48 2.37 2.74 2.645v-.002zM24.702 55.419c-.011.13-.027.261-.052.392a3.832 3.832 0 0 1-.357 1.13c-.238.48-.568.918-.988 1.257a2.762 2.762 0 0 1-1.426-2.695c.153-1.135.94-1.953 1.912-2.422.166.128.316.27.43.431.06.082.11.17.156.26.055.086.101.18.14.275.081.193.125.409.158.638.038.226.046.469.024.73l.003.004zM23.602 63.333c1.317-.027 2.324-.775 2.856-1.79-.726-.867-1.776-1.401-3.022-1.437-1.23-.049-2.417.437-3.118 1.342.701 1.13 1.978 1.91 3.287 1.888l-.003-.003zM27.666 57.832a4.127 4.127 0 0 1-.861 3.194c-1.056-.325-1.904-1.263-2.043-2.433-.128-1.189.46-2.258 1.333-3.003.832.366 1.397 1.132 1.571 2.242zM27.947 66.263c1.325-.27 2.25-1.233 2.648-2.381-.87-.775-2.04-1.138-3.314-.922a4.298 4.298 0 0 0-1.73.706 3.709 3.709 0 0 0-1.196 1.361c.88.998 2.271 1.511 3.589 1.238l.003-.002zM31.27 59.789a4.375 4.375 0 0 1-.393 3.49 3.023 3.023 0 0 1-2.493-2.157c-.18-.592-.164-1.213-.017-1.794.15-.581.437-1.13.813-1.607.952.235 1.724.936 2.09 2.07v-.002zM32.773 68.577a3.683 3.683 0 0 0 1.626-1.17c.409-.51.679-1.119.771-1.762-1.022-.66-2.258-.862-3.537-.423a4.494 4.494 0 0 0-1.67 1.03 4.12 4.12 0 0 0-1.027 1.626c1.025.87 2.503 1.19 3.834.696l.003.003zM35.286 61.254c.256.562.382 1.184.393 1.82a5.499 5.499 0 0 1-.322 1.89c-1.17.043-2.326-.655-2.847-1.844a3.64 3.64 0 0 1-.276-1.877c.068-.635.281-1.257.6-1.819 1.042.088 1.937.71 2.452 1.833v-.003zM17.5 45.789c.033-.428.227-.802.483-1.105.256-.302.584-.526.952-.654.292.28.515.605.649.949.136.344.166.706.142 1.077-.033.371-.197.71-.404 1.01-.199.3-.485.564-.826.774a2.245 2.245 0 0 1-.8-.86c-.182-.354-.237-.763-.196-1.188v-.003zM60.018 49.302a3.74 3.74 0 0 0 1.067.976c.406.254.864.434 1.35.486.032-.055.062-.112.09-.17.022-.06.043-.117.062-.18.039-.12.071-.245.096-.37.046-.251.082-.508.057-.764-.03-.257-.09-.51-.18-.75a2.13 2.13 0 0 0-.382-.668c-.687-.824-1.685-1.067-2.648-.922a2.071 2.071 0 0 0-.096.894c.006.05.017.101.025.15a2.105 2.105 0 0 0 .21.734c.046.098.104.196.166.295.055.095.115.19.183.286v.003zM65.762 50.102c-.414.464-.883.742-1.364.86-.493.117-.99.073-1.448-.085 0-.065 0-.13.003-.196 0-.066-.003-.131 0-.197 0-.13.01-.262.027-.392.03-.26.101-.516.175-.767a3.62 3.62 0 0 1 .286-.742c.123-.24.29-.474.445-.698.657-.886 1.642-1.424 2.61-1.35.074.3.12.616.133.936.009.158.009.319 0 .477-.005.079-.008.158-.019.237-.013.08-.03.158-.046.237a4.55 4.55 0 0 1-.297.903 4.168 4.168 0 0 1-.216.41c-.087.13-.185.253-.289.367zM58.858 52.52c.098.237.193.46.322.679.128.218.278.425.447.619.338.387.755.714 1.224.924a3.27 3.27 0 0 0 .48-.624c.142-.224.213-.486.279-.74.133-.51.068-1.068-.134-1.568a2.265 2.265 0 0 0-.177-.354 2.83 2.83 0 0 0-.824-.818 3.651 3.651 0 0 0-1.435-.521c-.117.166-.204.34-.259.526-.06.183-.12.368-.13.57-.012.404.018.83.207 1.301v.006zM64.425 55.181c-.265.17-.56.273-.838.338-.28.063-.553.082-.818.06a2.787 2.787 0 0 1-1.43-.55c.064-.265.156-.522.276-.762.126-.237.235-.485.398-.706.33-.44.696-.854 1.192-1.186.123-.085.254-.159.377-.23.12-.07.245-.136.37-.19.252-.115.514-.197.775-.249.524-.103 1.056-.079 1.539.107-.011.332-.055.67-.131 1a4.28 4.28 0 0 1-.38.942c-.3.605-.796 1.09-1.33 1.426zM56.692 55.397c.01.134.03.268.054.401a4.128 4.128 0 0 0 .366 1.151c.24.491.58.939 1.006 1.285a2.82 2.82 0 0 0 1.457-2.75c-.156-1.158-.96-1.99-1.953-2.47-.17.13-.322.275-.44.441a2.32 2.32 0 0 0-.16.262c-.055.09-.104.183-.142.284-.085.196-.128.42-.16.652-.04.229-.05.48-.028.747v-.003zM61.621 59.734a3.628 3.628 0 0 1-.466.082 3.014 3.014 0 0 1-1.298-.185c-.524-.2-.966-.54-1.312-.968.559-.966 1.424-1.724 2.615-2.068 1.149-.365 2.395-.232 3.26.442-.428 1.293-1.511 2.42-2.799 2.7v-.003zM53.667 57.86c-.174 1.12.14 2.358.878 3.258 1.078-.332 1.945-1.287 2.084-2.482.131-1.213-.472-2.304-1.36-3.065-.852.373-1.427 1.156-1.604 2.288h.002zM57.817 63.477c-1.344-.027-2.37-.791-2.913-1.828.74-.886 1.811-1.431 3.085-1.467 1.255-.05 2.466.447 3.183 1.37-.715 1.153-2.018 1.95-3.355 1.925zM49.993 59.86a4.455 4.455 0 0 0 .4 3.563 3.08 3.08 0 0 0 2.546-2.204c.182-.603.169-1.239.016-1.83a4.44 4.44 0 0 0-.83-1.64c-.97.24-1.758.955-2.132 2.111zM53.386 66.469c-1.353-.275-2.297-1.257-2.703-2.43.889-.788 2.08-1.162 3.382-.941.652.117 1.249.36 1.764.72.513.36.941.832 1.222 1.388-.9 1.018-2.318 1.541-3.666 1.263zM45.89 61.353a4.65 4.65 0 0 0-.401 1.855c-.008.646.109 1.306.327 1.93 1.195.044 2.376-.667 2.905-1.881.27-.608.352-1.266.28-1.915a4.804 4.804 0 0 0-.613-1.857c-1.064.09-1.977.723-2.501 1.87l.003-.002zM48.452 68.83a3.764 3.764 0 0 1-1.66-1.195 3.724 3.724 0 0 1-.79-1.797c1.043-.674 2.306-.878 3.612-.43.65.223 1.23.588 1.702 1.052.474.464.84 1.034 1.05 1.66-1.047.89-2.556 1.215-3.917.713l.003-.003zM61.774 45.844c-.025-.38.008-.748.145-1.1.136-.351.365-.681.662-.968.377.131.71.36.971.669.26.308.459.69.491 1.126.041.434-.016.854-.199 1.214a2.291 2.291 0 0 1-.815.875 2.672 2.672 0 0 1-.843-.79c-.213-.309-.377-.653-.412-1.032v.006z" fill="#D8D2B3"></path>
    <path d="M17.118 22.102c-1.934 0-3.68.99-4.672 2.65a5.395 5.395 0 0 0-.123 5.37l4.457 8.298a9.518 9.518 0 0 0 8.397 5.021h3.063v-21.34H17.118zm7.858 18.074v-.008a6.249 6.249 0 0 1-5.319-3.295l-4.457-8.3c-.33-.616-.466-1.63-.18-2.252-.002.013 0-.014 0 0 .311-1.012 1.108-1.47 2.12-1.47h7.838v15.317c.069 0 .134.008.202.008H24.975z" fill="url(#1nyz3j9qma)"></path>
    <path d="M24.976 40.176h.201c-.068 0-.133-.005-.201-.008v.008z" fill="url(#jwohdd796b)"></path>
    <path d="M51.762 22.102V43.44h3.063a9.523 9.523 0 0 0 8.397-5.021l4.457-8.297a5.408 5.408 0 0 0-.123-5.37 5.402 5.402 0 0 0-4.672-2.651H51.762zm3.063 18.074c.068 0 .133-.005.201-.008V24.851h7.84c1.011 0 1.807.458 2.118 1.47 0-.014.003.013 0 0 .287.619.15 1.634-.18 2.253l-4.456 8.3a6.252 6.252 0 0 1-5.319 3.294v.008H54.825z" fill="url(#n0sp3te5ec)"></path>
    <path d="M55.027 40.176h-.202c.068 0 .134-.005.202-.008v.008z" fill="url(#otzw3rrzsd)"></path>
    <path d="M35.372 60.537c1.64-4.127 2.204-6.273 3.066-10.705 0-.947 1.246-1.544 2.926-1.708a9.37 9.37 0 0 0-.932-.046h-.02c-2.143 0-3.883.636-3.883 1.754-.862 4.432-1.427 6.581-3.066 10.705l13.932.035v-.005l-12.02-.03h-.003z" fill="url(#arqtni14ke)"></path>
    <path d="M38.438 49.831c-.862 4.432-1.427 6.582-3.066 10.706l12.02.03c-.011-.03-.022-.06-.036-.09-1.568-4.089-2.151-6.249-3.063-10.646 0-.946-1.246-1.543-2.929-1.707-1.68.164-2.926.761-2.926 1.707z" fill="url(#noo8n51ryf)"></path>
    <path d="M38.438 49.831c-.862 4.432-1.427 6.582-3.066 10.706l12.02.03c-.011-.03-.022-.06-.036-.09-1.568-4.089-2.151-6.249-3.063-10.646 0-.946-1.246-1.543-2.929-1.707-1.68.164-2.926.761-2.926 1.707z" fill="url(#2s2iv9k6hg)"></path>
    <path d="M32.436 59.993h-1.931a.987.987 0 0 0-.987.987v3.377h1.93V60.98c0-.545.442-.987.988-.987z" fill="#FFBF0B"></path>
    <path d="M49.805 59.993H32.44a.987.987 0 0 0-.988.987v3.377h19.343V60.98a.987.987 0 0 0-.987-.987h-.003z" fill="#FFB000"></path>
    <path d="M49.805 59.993H32.44a.987.987 0 0 0-.988.987v3.377h19.343V60.98a.987.987 0 0 0-.987-.987h-.003z" fill="url(#6zdwrlbfbh)"></path>
    <path d="m27.082 72.644 2.06-8.37c.147-.54.635-.914 1.194-.914h-2.455c-.559 0-1.047.373-1.194.914l-2.06 8.37a1.24 1.24 0 0 0 1.195 1.566h2.455a1.24 1.24 0 0 1-1.195-1.566z" fill="#411911"></path>
    <path d="m55.685 72.644-2.06-8.37a1.237 1.237 0 0 0-1.194-.914H30.336c-.559 0-1.047.373-1.194.914l-2.06 8.37a1.24 1.24 0 0 0 1.195 1.566H54.49a1.24 1.24 0 0 0 1.195-1.566z" fill="#6E2F21"></path>
    <path d="M27.088 74.45v-2.182c0-.3.245-.546.545-.546h-3.546c-.3 0-.545.246-.545.546v2.182c0 .3.245.545.545.545h3.546a.547.547 0 0 1-.545-.545z" fill="#1E100E"></path>
    <path d="M56.27 71.722H27.632a.545.545 0 0 0-.545.546v2.182c0 .3.244.545.545.545H56.27a.545.545 0 0 0 .546-.545v-2.182a.545.545 0 0 0-.546-.546z" fill="#411911"></path>
    <g filter="url(#idun67d12i)">
        <path d="M36.452 67.083a.16.16 0 0 1-.04.164l-.784.763a.16.16 0 0 0-.04.066l-.02-.007-1.076-.35 1.96-.636z" fill="#FFE6A9"></path>
        <path d="m36.452 67.082-1.96.637.664-.915.013-.016c.02.014.045.025.07.029l1.084.157a.16.16 0 0 1 .13.109z" fill="#fff"></path>
        <path d="M35.768 69.23a.157.157 0 0 1-.064.157l-1.21-1.667 1.075.35.02.006a.157.157 0 0 0-.005.076l.184 1.078z" fill="#FFF2D3"></path>
        <path d="m34.493 67.72 1.21 1.666a.157.157 0 0 1-.168.012l-.968-.508a.154.154 0 0 0-.075-.02v-1.15z" fill="#FFE19A"></path>
        <path d="m35.17 66.787-.013.017-.664.914v-2.06a.16.16 0 0 1 .144.09l.484.98a.166.166 0 0 0 .05.06z" fill="#FFF2D3"></path>
        <path d="M34.493 68.85v.02a.15.15 0 0 0-.075.02l-.968.508a.155.155 0 0 1-.168-.013l1.21-1.666v1.13z" fill="#F4D487"></path>
        <path d="m34.492 67.72-1.21 1.666a.157.157 0 0 1-.065-.156l.186-1.079a.156.156 0 0 0-.006-.075l.02-.007 1.076-.35z" fill="#FFF2D3"></path>
        <path d="M34.493 65.659v2.06l-.666-.914-.028-.007a.158.158 0 0 0 .066-.069l.483-.98a.16.16 0 0 1 .144-.09z" fill="#FFE6A9"></path>
        <path d="m34.492 67.72-1.076.35-.02.006a.152.152 0 0 0-.04-.066l-.783-.763a.16.16 0 0 1-.04-.164l1.96.636z" fill="#FADF9D"></path>
        <path d="m34.492 67.719-1.96-.637a.158.158 0 0 1 .13-.11l1.082-.156a.16.16 0 0 0 .055-.02l.029.007.665.915z" fill="#FFF2D3"></path>
    </g>
    <g filter="url(#z8ioaccg2j)">
        <path d="M41.961 67.083a.16.16 0 0 1-.04.164l-.784.763a.16.16 0 0 0-.04.066l-.02-.007-1.076-.35 1.96-.636z" fill="#FFE6A9"></path>
        <path d="m41.961 67.082-1.96.637.664-.915.013-.016c.02.014.045.025.07.029l1.083.157a.16.16 0 0 1 .13.109z" fill="#fff"></path>
        <path d="M41.276 69.23a.157.157 0 0 1-.063.157l-1.211-1.667 1.076.35.02.006a.157.157 0 0 0-.006.076l.185 1.078z" fill="#FFF2D3"></path>
        <path d="m40.002 67.72 1.21 1.666a.157.157 0 0 1-.169.012l-.967-.508a.154.154 0 0 0-.075-.02v-1.15z" fill="#FFE19A"></path>
        <path d="m40.68 66.787-.014.017-.664.914v-2.06a.16.16 0 0 1 .144.09l.483.98a.166.166 0 0 0 .05.06z" fill="#FFF2D3"></path>
        <path d="M40.002 68.85v.02a.15.15 0 0 0-.075.02l-.968.508a.155.155 0 0 1-.168-.013l1.21-1.666v1.13z" fill="#F4D487"></path>
        <path d="m40.001 67.72-1.21 1.666a.157.157 0 0 1-.065-.156l.185-1.079a.156.156 0 0 0-.005-.075l.02-.007 1.076-.35z" fill="#FFF2D3"></path>
        <path d="M40.001 65.659v2.06l-.665-.914-.028-.007a.158.158 0 0 0 .065-.069l.484-.98a.16.16 0 0 1 .144-.09z" fill="#FFE6A9"></path>
        <path d="m40.001 67.72-1.076.35-.02.006a.152.152 0 0 0-.04-.066l-.784-.763a.16.16 0 0 1-.04-.164l1.96.636z" fill="#FADF9D"></path>
        <path d="m40.001 67.719-1.96-.637a.158.158 0 0 1 .13-.11l1.082-.156a.16.16 0 0 0 .055-.02l.028.007.666.915z" fill="#FFF2D3"></path>
    </g>
    <g filter="url(#csqopf3t6k)">
        <path d="M47.47 67.083a.16.16 0 0 1-.04.164l-.783.763a.16.16 0 0 0-.04.066l-.02-.007-1.076-.35 1.96-.636z" fill="#FFE6A9"></path>
        <path d="m47.47 67.082-1.96.637.665-.915.013-.016c.02.014.044.025.07.029l1.083.157c.066.009.112.054.13.109z" fill="#fff"></path>
        <path d="M46.786 69.23a.157.157 0 0 1-.064.157l-1.21-1.667 1.076.35.02.006a.156.156 0 0 0-.006.076l.185 1.078z" fill="#FFF2D3"></path>
        <path d="m45.511 67.72 1.211 1.666a.157.157 0 0 1-.169.012l-.968-.508a.153.153 0 0 0-.074-.02v-1.15z" fill="#FFE19A"></path>
        <path d="m46.189 66.787-.013.017-.664.914v-2.06a.16.16 0 0 1 .144.09l.483.98a.166.166 0 0 0 .05.06z" fill="#FFF2D3"></path>
        <path d="M45.51 68.85v.02a.15.15 0 0 0-.074.02l-.969.508a.155.155 0 0 1-.167-.013l1.21-1.666v1.13z" fill="#F4D487"></path>
        <path d="m45.51 67.72-1.21 1.666a.157.157 0 0 1-.064-.156l.185-1.079a.158.158 0 0 0-.005-.075l.02-.007 1.075-.35z" fill="#FFF2D3"></path>
        <path d="M45.511 65.659v2.06l-.665-.914-.029-.007a.158.158 0 0 0 .066-.069l.484-.98a.16.16 0 0 1 .144-.09z" fill="#FFE6A9"></path>
        <path d="m45.511 67.72-1.076.35-.02.006a.151.151 0 0 0-.04-.066l-.784-.763a.16.16 0 0 1-.04-.164l1.96.636z" fill="#FADF9D"></path>
        <path d="m45.51 67.719-1.96-.637a.157.157 0 0 1 .13-.11l1.083-.156a.16.16 0 0 0 .055-.02l.028.007.665.915z" fill="#FFF2D3"></path>
    </g>
    <path d="M26.26 31.849V18.173h-4.365V31.85c0 10.091 8.183 18.274 18.274 18.274.737 0 1.46-.05 2.174-.137-9.058-1.083-16.084-8.788-16.084-18.137z" fill="#FFBF0B"></path>
    <path d="M58.444 31.849V18.173H26.26V31.85c0 9.35 7.026 17.054 16.083 18.137l.145-.016c8.998-1.14 15.956-8.815 15.956-18.124v.003z" fill="#FFBF0B"></path>
    <path d="M58.444 31.849V18.173H26.26V31.85c0 9.35 7.026 17.054 16.083 18.137l.145-.016c8.998-1.14 15.956-8.815 15.956-18.124v.003z" fill="url(#70avb59o6l)"></path>
    <path d="m23.243 18.433-1.348.079v2.727l1.348-.079c1.004-.06 2.01-.111 3.016-.16v-2.728c-1.006.05-2.01.1-3.016.16z" fill="#FFB000"></path>
    <path d="m57.292 21.171 1.151.068v-2.727l-1.15-.068a285.888 285.888 0 0 0-31.033-.172v2.727a285.888 285.888 0 0 1 31.032.172z" fill="url(#5t9h4zt2im)"></path>
    <path d="M23.376 13.912a4.664 4.664 0 0 1 2.089-3.772l-4.271.213a4.143 4.143 0 1 0 0 8.286l.458-.022c1.59-.08 3.183-.147 4.773-.205a4.672 4.672 0 0 1-3.052-4.497l.003-.003z" fill="#FFBF0B"></path>
    <path d="M51.534 10.032c-8.237-.36-16.488-.34-24.724.071l-.802.041a4.661 4.661 0 0 0-2.09 3.772 4.67 4.67 0 0 0 3.053 4.498c8.18-.3 16.37-.311 24.55-.044.618-2.744.624-5.591.01-8.338h.003z" fill="url(#jupe7zw4hn)"></path>
    <path d="M51.534 10.032c-8.236-.36-16.487-.34-24.724.071l-1.347.041a4.661 4.661 0 0 0-2.09 3.772 4.67 4.67 0 0 0 3.053 4.498c8.18-.3 16.915-.311 25.095-.044.619-2.744.624-5.591.01-8.338h.003z" fill="url(#hafxeyp03o)"></path>
    <path d="m58.099 10.354-1.287-.065a19 19 0 0 1-.118 8.286c.467.022.936.04 1.402.066a4.143 4.143 0 1 0 0-8.286h.003z" fill="url(#evdoaxbbyp)"></path>
    <path d="m58.099 10.354-1.287-.065a19 19 0 0 1-.118 8.286c.467.022.936.04 1.402.066a4.143 4.143 0 1 0 0-8.286h.003z" fill="url(#eu589rf7gq)"></path>
    <path d="m56.814 10.288-3.328-.172c-.649-.033-1.3-.06-1.953-.087a19.03 19.03 0 0 1-.01 8.338c1.723.057 3.45.125 5.173.207.647-2.722.688-5.55.118-8.286z" fill="url(#vc7di3vhur)"></path>
    <path d="m56.814 10.288-3.328-.172c-.649-.033-1.3-.06-1.953-.087a19.03 19.03 0 0 1-.01 8.338c1.723.057 3.45.125 5.173.207.647-2.722.688-5.55.118-8.286z" fill="url(#9x5onn7eos)"></path>
    <g filter="url(#1sjs9pzm0t)">
        <path d="M49.525 29.676c.079.25.03.54-.188.755l-3.609 3.516a.741.741 0 0 0-.185.303l-.09-.03-4.959-1.612 9.03-2.932z" fill="#FFE6A9"></path>
        <path d="m49.525 29.675-9.03 2.932 3.06-4.214.06-.076a.747.747 0 0 0 .324.134l4.988.722a.733.733 0 0 1 .598.505v-.003z" fill="#fff"></path>
        <path d="M46.37 39.569c.051.3-.08.565-.295.72l-5.578-7.678 4.959 1.61.09.03a.721.721 0 0 0-.025.349l.851 4.969h-.003z" fill="#FFF2D3"></path>
        <path d="m40.497 32.61 5.578 7.678a.724.724 0 0 1-.778.054L40.837 38a.708.708 0 0 0-.343-.088v-5.305l.003.003z" fill="#FFE19A"></path>
        <path d="m43.617 28.314-.06.077-3.06 4.214V23.11c.262 0 .526.14.663.412l2.228 4.52c.055.109.134.201.23.272z" fill="#FFF8E7"></path>
        <path d="M40.496 37.817v.095a.693.693 0 0 0-.343.088l-4.462 2.342a.714.714 0 0 1-.772-.06l5.578-7.675v5.21z" fill="#F4D487"></path>
        <path d="m40.498 32.607-5.577 7.678a.724.724 0 0 1-.298-.717l.854-4.97a.722.722 0 0 0-.024-.349l.09-.03 4.958-1.612h-.003z" fill="#FFF2D3"></path>
        <path d="M40.498 23.113v9.494l-3.065-4.214-.131-.03a.729.729 0 0 0 .303-.319l2.228-4.52a.734.734 0 0 1 .663-.411h.002z" fill="#FFEBB8"></path>
        <path d="m40.498 32.608-4.959 1.612-.09.03a.703.703 0 0 0-.188-.303l-3.608-3.516a.733.733 0 0 1-.186-.755l9.03 2.932z" fill="#FADF9D"></path>
        <path d="m40.498 32.606-9.03-2.932a.725.725 0 0 1 .597-.505l4.986-.722a.74.74 0 0 0 .253-.088l.131.03 3.066 4.214-.003.003z" fill="#FFF2D3"></path>
    </g>
    <path d="M25.39 2.333s.463 2.881 4.942 2.735l-2.823 2.865s-2.942 0-4.177-2.865l2.059-2.735z" fill="#FF8BAE"></path>
    <path d="m56.881 0 4.951 1.154S59.359 5.771 55.783 6l-4.951-1.154s6.049-3 6.049-4.846z" fill="#A992FF"></path>
    <path d="M12.166 39.52 9.842 38s-1.37 2.938-.21 4.48L11.956 44s-.69-3.705.21-4.48z" fill="#FFB185"></path>
    <path d="m74.458 31.334 3.541.838s-1.879 3.053-4.459 3.162L70 34.493s4.42-1.925 4.459-3.16z" fill="#7FCCFF"></path>
    <path d="m64.999 17.538 2.78-.372 2.22 2.417-2.273 1.584-2.727-3.629z" fill="#FF959F"></path>
    <path d="m4.166 17.587 2.8.413 2.2-3.06L6.859 13l-2.693 4.587z" fill="#82D8B2"></path>
    <defs>
        <linearGradient id="1nyz3j9qma" x1="11.668" y1="32.771" x2="28.24" y2="32.771" gradientUnits="userSpaceOnUse">
            <stop stop-color="#FFDF00"></stop>
            <stop offset="1" stop-color="#FFCE00"></stop>
        </linearGradient>
        <linearGradient id="jwohdd796b" x1="11.668" y1="40.173" x2="28.24" y2="40.173" gradientUnits="userSpaceOnUse">
            <stop stop-color="#FFDF00"></stop>
            <stop offset="1" stop-color="#FFCE00"></stop>
        </linearGradient>
        <linearGradient id="n0sp3te5ec" x1="68.334" y1="32.771" x2="51.762" y2="32.771" gradientUnits="userSpaceOnUse">
            <stop stop-color="#FFDF00"></stop>
            <stop offset="1" stop-color="#FFCE00"></stop>
        </linearGradient>
        <linearGradient id="otzw3rrzsd" x1="68.334" y1="40.173" x2="51.762" y2="40.173" gradientUnits="userSpaceOnUse">
            <stop stop-color="#FFDF00"></stop>
            <stop offset="1" stop-color="#FFCE00"></stop>
        </linearGradient>
        <linearGradient id="arqtni14ke" x1="40.429" y1="60.572" x2="40.429" y2="46.682" gradientUnits="userSpaceOnUse">
            <stop stop-color="#F4A300"></stop>
            <stop offset="1" stop-color="#FFBF0B"></stop>
        </linearGradient>
        <linearGradient id="noo8n51ryf" x1="33.463" y1="54.345" x2="48.952" y2="54.345" gradientUnits="userSpaceOnUse">
            <stop stop-color="#FFCE00"></stop>
            <stop offset=".75" stop-color="#FFDF00"></stop>
        </linearGradient>
        <linearGradient id="2s2iv9k6hg" x1="35.372" y1="54.345" x2="50.861" y2="54.345" gradientUnits="userSpaceOnUse">
            <stop stop-color="#FFBF0B"></stop>
            <stop offset=".75" stop-color="#FFCE00"></stop>
        </linearGradient>
        <linearGradient id="6zdwrlbfbh" x1="31.449" y1="62.175" x2="52.723" y2="62.175" gradientUnits="userSpaceOnUse">
            <stop stop-color="#FFCE00"></stop>
            <stop offset=".75" stop-color="#FFDF00"></stop>
        </linearGradient>
        <linearGradient id="70avb59o6l" x1="26.26" y1="34.08" x2="68.118" y2="34.08" gradientUnits="userSpaceOnUse">
            <stop stop-color="#FFCE00"></stop>
            <stop offset=".75" stop-color="#FFDF00"></stop>
        </linearGradient>
        <linearGradient id="5t9h4zt2im" x1="26.26" y1="19.587" x2="58.444" y2="19.587" gradientUnits="userSpaceOnUse">
            <stop stop-color="#FFBF0B"></stop>
            <stop offset="1" stop-color="#FFCE00"></stop>
        </linearGradient>
        <linearGradient id="jupe7zw4hn" x1="17.599" y1="14.094" x2="62.242" y2="14.094" gradientUnits="userSpaceOnUse">
            <stop stop-color="#FFCE00"></stop>
            <stop offset=".75" stop-color="#FFDF00"></stop>
        </linearGradient>
        <linearGradient id="hafxeyp03o" x1="23.379" y1="13.804" x2="74.693" y2="15.103" gradientUnits="userSpaceOnUse">
            <stop stop-color="#FFCE00"></stop>
            <stop offset=".75" stop-color="#FFDF00"></stop>
        </linearGradient>
        <linearGradient id="evdoaxbbyp" x1="17.599" y1="14.465" x2="62.242" y2="14.465" gradientUnits="userSpaceOnUse">
            <stop stop-color="#FFCE00"></stop>
            <stop offset=".75" stop-color="#FFDF00"></stop>
        </linearGradient>
        <linearGradient id="eu589rf7gq" x1="23.929" y1="13.616" x2="74.267" y2="14.89" gradientUnits="userSpaceOnUse">
            <stop stop-color="#FFCE00"></stop>
            <stop offset=".75" stop-color="#FFDF00"></stop>
        </linearGradient>
        <linearGradient id="vc7di3vhur" x1="17.599" y1="14.303" x2="62.241" y2="14.303" gradientUnits="userSpaceOnUse">
            <stop stop-color="#FFCE00"></stop>
            <stop offset=".75" stop-color="#FFDF00"></stop>
        </linearGradient>
        <linearGradient id="9x5onn7eos" x1="23.931" y1="13.539" x2="74.268" y2="14.813" gradientUnits="userSpaceOnUse">
            <stop stop-color="#FFCE00"></stop>
            <stop offset=".75" stop-color="#FFDF00"></stop>
        </linearGradient>
        <filter id="idun67d12i" x="31.524" y="65.158" width="5.936" height="5.76" filterUnits="userSpaceOnUse" color-interpolation-filters="sRGB">
            <feFlood flood-opacity="0" result="BackgroundImageFix"></feFlood>
            <feColorMatrix in="SourceAlpha" values="0 0 0 0 0 0 0 0 0 0 0 0 0 0 0 0 0 0 127 0" result="hardAlpha"></feColorMatrix>
            <feOffset dy=".5"></feOffset>
            <feGaussianBlur stdDeviation=".5"></feGaussianBlur>
            <feColorMatrix values="0 0 0 0 0.254902 0 0 0 0 0.0980392 0 0 0 0 0.0666667 0 0 0 1 0"></feColorMatrix>
            <feBlend in2="BackgroundImageFix" result="effect1_dropShadow_11496_64824"></feBlend>
            <feBlend in="SourceGraphic" in2="effect1_dropShadow_11496_64824" result="shape"></feBlend>
        </filter>
        <filter id="z8ioaccg2j" x="37.033" y="65.158" width="5.936" height="5.76" filterUnits="userSpaceOnUse" color-interpolation-filters="sRGB">
            <feFlood flood-opacity="0" result="BackgroundImageFix"></feFlood>
            <feColorMatrix in="SourceAlpha" values="0 0 0 0 0 0 0 0 0 0 0 0 0 0 0 0 0 0 127 0" result="hardAlpha"></feColorMatrix>
            <feOffset dy=".5"></feOffset>
            <feGaussianBlur stdDeviation=".5"></feGaussianBlur>
            <feColorMatrix values="0 0 0 0 0.254902 0 0 0 0 0.0980392 0 0 0 0 0.0666667 0 0 0 1 0"></feColorMatrix>
            <feBlend in2="BackgroundImageFix" result="effect1_dropShadow_11496_64824"></feBlend>
            <feBlend in="SourceGraphic" in2="effect1_dropShadow_11496_64824" result="shape"></feBlend>
        </filter>
        <filter id="csqopf3t6k" x="42.543" y="65.158" width="5.936" height="5.76" filterUnits="userSpaceOnUse" color-interpolation-filters="sRGB">
            <feFlood flood-opacity="0" result="BackgroundImageFix"></feFlood>
            <feColorMatrix in="SourceAlpha" values="0 0 0 0 0 0 0 0 0 0 0 0 0 0 0 0 0 0 127 0" result="hardAlpha"></feColorMatrix>
            <feOffset dy=".5"></feOffset>
            <feGaussianBlur stdDeviation=".5"></feGaussianBlur>
            <feColorMatrix values="0 0 0 0 0.254902 0 0 0 0 0.0980392 0 0 0 0 0.0666667 0 0 0 1 0"></feColorMatrix>
            <feBlend in2="BackgroundImageFix" result="effect1_dropShadow_11496_64824"></feBlend>
            <feBlend in="SourceGraphic" in2="effect1_dropShadow_11496_64824" result="shape"></feBlend>
        </filter>
        <filter id="1sjs9pzm0t" x="30.431" y="23.11" width="20.13" height="19.32" filterUnits="userSpaceOnUse" color-interpolation-filters="sRGB">
            <feFlood flood-opacity="0" result="BackgroundImageFix"></feFlood>
            <feColorMatrix in="SourceAlpha" values="0 0 0 0 0 0 0 0 0 0 0 0 0 0 0 0 0 0 127 0" result="hardAlpha"></feColorMatrix>
            <feOffset dy="1"></feOffset>
            <feGaussianBlur stdDeviation=".5"></feGaussianBlur>
            <feColorMatrix values="0 0 0 0 0.522998 0 0 0 0 0.367007 0 0 0 0 0.0642001 0 0 0 0.3 0"></feColorMatrix>
            <feBlend in2="BackgroundImageFix" result="effect1_dropShadow_11496_64824"></feBlend>
            <feBlend in="SourceGraphic" in2="effect1_dropShadow_11496_64824" result="shape"></feBlend>
        </filter>
    </defs>
</symbol>
<symbol viewBox="0 0 24 24" fill="none" id="ic-sample-image">
    <path d="M2.5 4.5a2 2 0 0 1 2-2h15a2 2 0 0 1 2 2v15a2 2 0 0 1-2 2h-15a2 2 0 0 1-2-2v-15z" stroke="currentColor" stroke-width="1.5" stroke-linejoin="round"></path>
    <path d="m13.425 15.472-.52.541a.75.75 0 0 0 1.04 0l-.52-.541zm.99-.95-.52-.541.52.54zm-5.243-3.133-.52.54.52-.54zm-6.13 4.6 3.84-4.02-1.084-1.037-3.84 4.022 1.084 1.036zm5.61-4.06 4.254 4.084 1.038-1.082-4.253-4.083-1.039 1.082zm5.292 4.084.99-.95-1.038-1.082-.99.95 1.038 1.082zm2.722-.95 4.315 4.142 1.038-1.082-4.314-4.142-1.04 1.082zm-1.732 0a1.25 1.25 0 0 1 1.732 0l1.038-1.082a2.75 2.75 0 0 0-3.808 0l1.038 1.082zm-8.051-3.095a1.25 1.25 0 0 1 1.77-.038l1.038-1.082a2.75 2.75 0 0 0-3.893.084l1.085 1.036z" fill="currentColor"></path>
    <circle cx="17" cy="7" r=".75" fill="currentColor" stroke="currentColor" stroke-width=".5"></circle>
</symbol>
<symbol viewBox="0 0 24 24" fill="none" id="ic-select">
    <path d="m5.5 9.5 7 7 7-7" stroke="currentColor" stroke-width="1.5" stroke-linecap="round" stroke-linejoin="round"></path>
</symbol>
<symbol viewBox="0 0 24 24" fill="none" id="ic-share">
    <circle cx="5" cy="12" r="3.25" stroke="currentColor" stroke-width="1.5"></circle>
    <circle cx="19" cy="5" r="3.25" stroke="currentColor" stroke-width="1.5"></circle>
    <circle cx="19" cy="19" r="3.25" stroke="currentColor" stroke-width="1.5"></circle>
    <path d="m8 13 8 5M8 10l8-4" stroke="currentColor" stroke-width="1.5"></path>
</symbol>
<symbol viewBox="0 0 16 16" fill="none" id="ic-talk-owner">
    <path fill-rule="evenodd" clip-rule="evenodd" d="M8.78 3.683A1.453 1.453 0 0 0 8 1a1.455 1.455 0 0 0-.78 2.683L4.768 7.545l-2.94-2.468a1.09 1.09 0 1 0-.859.28l1.294 6.424a.5.5 0 0 0 .49.4h10.494a.5.5 0 0 0 .49-.4l1.293-6.424a1.091 1.091 0 1 0-.858-.28l-2.94 2.468L8.78 3.683z" fill="#09F"></path>
    <rect x="2" y="13.5" width="12" height="1.5" rx=".75" fill="#09F"></rect>
</symbol>
<symbol viewBox="0 0 16 16" fill="none" id="ic-talk-report">
    <circle cx="8" cy="10.667" r=".5" fill="#999" stroke="#999" stroke-width=".333"></circle>
    <path d="M8 5.333v3.334" stroke="#999" stroke-linecap="round"></path>
    <circle cx="8" cy="8" r="6.833" stroke="#999"></circle>
</symbol>
<symbol viewBox="0 0 28 20" fill="none" id="ic-thumb-play">
    <rect x="1" y="1" width="26" height="18" rx="4" fill="#000"></rect>
    <path d="M17.421 9.591a.5.5 0 0 1 0 .818l-5.383 3.798a.5.5 0 0 1-.788-.409V6.202a.5.5 0 0 1 .788-.409l5.383 3.798z" fill="#fff"></path>
    <rect opacity=".5" x=".5" y=".5" width="27" height="19" rx="4.5" stroke="#fff"></rect>
</symbol>
<symbol viewBox="0 0 16 16" fill="none" id="ic-thumbup-selected">
    <mask id="82418tv5ba" style="mask-type:alpha" maskUnits="userSpaceOnUse" x="1" y="1" width="15" height="14">
        <path d="M4.333 6.833V13.5a.833.833 0 0 1-.833.833H1.833A.834.834 0 0 1 1 13.5V7.667a.833.833 0 0 1 .833-.834h2.5A3.333 3.333 0 0 0 7.667 3.5v-.833a1.667 1.667 0 1 1 3.333 0v4.166h2.5A1.667 1.667 0 0 1 15.167 8.5l-.834 4.167c-.12.51-.347.95-.648 1.25-.3.301-.658.447-1.018.416H6.833a2.5 2.5 0 0 1-2.5-2.5" fill="#333"></path>
    </mask>
    <g mask="url(#82418tv5ba)">
        <path d="M4.333 6.833V13.5a.833.833 0 0 1-.833.833H1.833A.834.834 0 0 1 1 13.5V7.667a.833.833 0 0 1 .833-.834h2.5A3.333 3.333 0 0 0 7.667 3.5v-.833a1.667 1.667 0 1 1 3.333 0v4.166h2.5A1.667 1.667 0 0 1 15.167 8.5l-.834 4.167c-.12.51-.347.95-.648 1.25-.3.301-.658.447-1.018.416H6.833a2.5 2.5 0 0 1-2.5-2.5" fill="#333"></path>
        <path d="M4.333 6.833V14.5" stroke="#fff" stroke-linecap="round" stroke-linejoin="round"></path>
    </g>
</symbol>
<symbol viewBox="0 0 16 16" fill="none" id="ic-thumbup">
    <path d="M4.333 6.833V13.5a.833.833 0 0 1-.833.833H1.833A.834.834 0 0 1 1 13.5V7.667a.833.833 0 0 1 .833-.834h2.5zm0 0A3.333 3.333 0 0 0 7.667 3.5v-.833a1.667 1.667 0 1 1 3.333 0v4.166h2.5A1.667 1.667 0 0 1 15.167 8.5l-.834 4.167c-.12.51-.347.95-.648 1.25-.3.301-.658.447-1.018.416H6.833a2.5 2.5 0 0 1-2.5-2.5" stroke="#333" stroke-linecap="round" stroke-linejoin="round"></path>
</symbol>
</defs>
</svg>
