<svg width="64" height="100" viewBox="0 0 64 100" fill="none" xmlns="http://www.w3.org/2000/svg">
    <mask id="8xv81bagwa" style="mask-type:alpha" maskUnits="userSpaceOnUse" x="0" y="0" width="64" height="100">
        <path fill="#fff" d="M0 0h64v100H0z"/>
    </mask>
    <g mask="url(#8xv81bagwa)">
        <path fill="#fff" d="M0 0h64v100H0z"/>
        <path fill="#fff" d="M1 5.7h62v88.49H1z"/>
        <path d="M8.767 69.862h-4.64v10.7H6.47v-2.584h2.298c1.255 0 2.27-.42 3.018-1.221.761-.787 1.157-1.6 1.17-2.752 0-1.404-.408-2.177-1.17-2.95-.747-.772-1.762-1.179-3.018-1.193zm1.326 5.335c-.324.337-.804.506-1.452.52H6.469v-3.623h2.158c.649 0 1.142.183 1.467.506.338.337.508.772.508 1.306 0 .533-.17.955-.522 1.292h.014zM54.218 62.054v-2.036h3.934V57.77h-3.934v-1.952h5.683v-2.247h-8.024V64.3h8.094v-2.246h-5.753zM22.828 69.847h-2.34V80.59h8.01v-2.248h-5.67v-8.495zM12.152 64.314v-2.26H6.469v-8.482H4.128v10.742H12.152zM37.239 60.074h4.005v-2.261H37.24v-1.994h5.683v-2.247h-8.024V64.3h2.34v-4.226zM40.878 76.419c0 .646-.169 1.138-.507 1.46-.339.352-.776.52-1.312.52s-.96-.168-1.298-.52c-.338-.322-.507-.8-.521-1.445v-6.587h-2.342v6.629c.014 1.25.438 2.26 1.227 3.005.79.758 1.777 1.152 2.933 1.166 1.185 0 2.172-.407 2.947-1.166.776-.744 1.185-1.755 1.199-3.005v-6.629h-2.327v6.573l.001-.001zM56.827 74.256c-1.945-.478-2.397-.646-2.397-1.306 0-.31.253-.885 1.523-.899 1.269-.014 2.552.73 2.552.73l.663-2.288s-1.226-.688-3.088-.688c-1.861 0-2.552.505-3.13.983-.578.478-.889 1.418-.889 2.022 0 .829.226 2.12 1.495 2.794 1.27.674 3.879.758 3.836 1.84-.028.843-1.086.941-1.72.941-.635 0-2.229-.35-3.089-.912l-.521 2.19s1.34 1.012 3.695 1.012c0 0 2.665.084 3.638-1.686l.028-.028s.719-1.39.127-2.766c-.55-1.263-1.763-1.713-2.722-1.937v-.002zM23.998 53.572h-2.34v10.742h2.34V53.572zM4.077 86.542h-.302v1.113h2.29v6.45h1.153v-6.45h2.289v-1.112h-5.43zM19.352 92.811l-.007-.014a7.796 7.796 0 0 0-.462-.772l-.007-.009a6.021 6.021 0 0 0-.543-.633 4.787 4.787 0 0 0-.168-.16c.057-.03.114-.063.17-.099a2.36 2.36 0 0 0 .587-.507c.165-.205.286-.428.384-.68.106-.276.144-.581.144-.886 0-.427-.079-.787-.22-1.11l-.003-.006-.274.127.274-.127a2.16 2.16 0 0 0-.611-.792l-.006-.005-.004-.003a2.444 2.444 0 0 0-.898-.456 3.845 3.845 0 0 0-1.08-.136h-2.66v7.563h1.153V91.56h1.295c.195 0 .406.064.637.2.235.158.444.348.64.575.2.25.362.494.49.766.133.28.21.534.242.745v.257h1.297l-.062-.352a3.874 3.874 0 0 0-.308-.94zm-2.367-2.382h-1.863V87.62h1.56c.57 0 .951.144 1.22.383.257.23.396.564.396 1.03 0 .467-.138.8-.397 1.03-.215.193-.518.322-.917.365l.001.002zm1.65 1.767.203-.14-.202.14zm.444.742.183-.085-.183.085zM25.736 86.542h-.302v7.562h1.171V86.542h-.869zM37.976 90.023a1.63 1.63 0 0 0 .27-.353l.003-.003.004-.006c.099-.16.16-.301.216-.468l.004-.01a1.67 1.67 0 0 0 .087-.572c0-.274-.063-.538-.139-.766l-.008-.021a2.023 2.023 0 0 0-.408-.65h-.001l-.01-.012a2.012 2.012 0 0 0-.655-.449l-.086.185.086-.186-.019-.007-.108.28.108-.28a2.51 2.51 0 0 0-.907-.162h-3.335v7.527h3.407c.775 0 1.407-.188 1.87-.608.466-.42.685-1.003.685-1.689 0-.443-.15-.842-.416-1.19a2.224 2.224 0 0 0-.645-.559l-.003-.001zm.157-2.085.16-.053-.16.053zm-3.92-.283h2.252c.149 0 .264.026.381.076.135.075.223.142.296.225a.91.91 0 0 1 .19.306c.05.147.074.253.074.365 0 .156-.015.28-.055.399l-.005.014-.003.016.294.065-.294-.065a.667.667 0 0 1-.148.294l.183.156-.184-.157-.01.015a.765.765 0 0 1-.267.23l-.011.006.146.263-.146-.263a.651.651 0 0 1-.25.079l-.011-.01h-2.432v-2.015.001zm3.832 4.788-.28-.111a.821.821 0 0 1-.238.326c-.122.106-.25.19-.401.245l.103.282-.103-.282-.01.003c-.075.03-.17.052-.277.067H34.23V90.8h2.52c.156 0 .295.028.438.085.158.063.276.132.36.216l.214-.212-.214.213.017.015a.783.783 0 0 1 .218.307l.005.01c.05.112.08.264.08.445a.887.887 0 0 1-.093.43l-.01.024.281.111zM44.208 86.542h-.3v7.562h5.25v-1.13H45.06v-2.138h3.106V89.706H45.06v-2.05h4.098v-1.113h-4.95zM58.734 90.533a3.584 3.584 0 0 0-.755-.463 6.069 6.069 0 0 0-.87-.332 58.62 58.62 0 0 1-.91-.297c-.271-.109-.47-.186-.634-.29l-.162.253.162-.254-.017-.01a.907.907 0 0 1-.338-.291.614.614 0 0 1-.11-.38c0-.171.04-.305.105-.42.055-.1.153-.19.294-.285.118-.079.276-.14.473-.188.18-.045.384-.062.62-.062.395 0 .756.066 1.041.2l.005.002c.34.152.642.32.926.52l.23.161.18-.28.093-.144.19-.298.154-.239-.231-.166a5.167 5.167 0 0 0-1.149-.62 3.968 3.968 0 0 0-1.458-.268 4.23 4.23 0 0 0-1.014.115 2.651 2.651 0 0 0-.84.36c-.261.174-.449.407-.59.646-.16.273-.217.597-.217.93 0 .331.085.634.236.893a1.932 1.932 0 0 0 .607.628h.001c.254.175.524.309.824.42.288.108.598.218.93.309h.003c.25.067.485.15.721.251.227.097.421.21.599.338.185.134.305.247.38.372.08.132.116.256.116.41a.728.728 0 0 1-.109.417 1.186 1.186 0 0 1-.324.323 1.47 1.47 0 0 1-.48.202 4.028 4.028 0 0 1-.666.065c-.373 0-.783-.064-1.214-.213l-.099.282.1-.283-.014-.004a3.871 3.871 0 0 1-1.187-.609l-.267-.194-.17.283-.283.477-.153.257.258.154c.148.089.363.235.56.342.203.11.43.224.7.32.264.094.546.168.844.224h.003c.316.056.652.093 1.028.093.342 0 .675-.037.995-.137l.006-.002a2.89 2.89 0 0 0 .813-.416c.251-.188.438-.417.582-.68.153-.285.213-.603.213-.938a1.82 1.82 0 0 0-.19-.823 2.052 2.052 0 0 0-.54-.664v.003zM1.013 21.512c0 2.014 1.119 2.765 3.448 4.674 4.935 4.028 8.278 7.372 12.778 13.164 2.014 2.594 5.567 5.411 9.923 5.253 6.37-.21 8.91-3.344 13.791-6.424 5.04-3.186 8.91-3.923 15.91-7.965 7.002-4.041 8.33-14.64 2.33-20.748-4.08-4.291-12.568-5.62-18.03-.21-6.474 6.372-8.277 8.333-15.014 10.61-7.91 1.962-15.069.264-18.464-.908-1.066-.368-2.224-.895-3.29-.842C2.54 18.22 1 19.656 1 21.512" fill="#000"/>
    </g>
</svg>
