<svg width="24" height="24" viewBox="0 0 24 24" fill="none" xmlns="http://www.w3.org/2000/svg">
    <path d="m19.92 7.7 2.83 2.38v10.08c0 .92-.74 1.66-1.66 1.66H3.41c-.92 0-1.66-.74-1.66-1.66V10.08l2.9-2.49M8.35 4.44l2.63-2.29c.61-.53 1.51-.53 2.14-.02l2.83 2.31" stroke="currentColor" stroke-width="1.5" stroke-linecap="round" stroke-linejoin="round"/>
    <path d="M4.75 11.96V5.64c0-.55.45-1 1-1h13c.55 0 1 .45 1 1v6.32" stroke="currentColor" stroke-width="1.5" stroke-linecap="round" stroke-linejoin="round"/>
    <path d="M22.75 10.08v10.08c0 .92-.74 1.66-1.66 1.66H3.41c-.92 0-1.66-.74-1.66-1.66V10.08l9.4 6.13c.54.35 1.24.36 1.79.02l9.81-6.15z" stroke="currentColor" stroke-width="1.5" stroke-linecap="round" stroke-linejoin="round"/>
    <path d="M10.3 10h4m-2-2v4" stroke="currentColor" stroke-width="1.4" stroke-linecap="round"/>
</svg>
