<svg width="24" height="24" viewBox="0 0 24 24" fill="none" xmlns="http://www.w3.org/2000/svg">
    <path d="M21 12.51v7.99c0 .83-.67 1.5-1.5 1.5h-16c-.83 0-1.5-.67-1.5-1.5v-16C2 3.67 2.67 3 3.5 3h7.95" stroke="currentColor" stroke-width="1.5" stroke-linecap="round" stroke-linejoin="round"/>
    <path d="m20.143 7.945 2.605-2.605a.86.86 0 0 0 0-1.216l-2.872-2.872a.86.86 0 0 0-1.216 0l-2.605 2.605m4.088 4.088-8.803 8.803a.86.86 0 0 1-.608.252H7v-3.732a.86.86 0 0 1 .252-.608l8.803-8.803m4.088 4.088-4.088-4.088" stroke="currentColor" stroke-width="1.5" stroke-linejoin="round"/>
</svg>
