<svg width="24" height="24" viewBox="0 0 24 24" fill="none" xmlns="http://www.w3.org/2000/svg">
    <path d="M20.5 3h-16A1.5 1.5 0 0 0 3 4.5v16A1.5 1.5 0 0 0 4.5 22h16a1.5 1.5 0 0 0 1.5-1.5v-16A1.5 1.5 0 0 0 20.5 3z" stroke="currentColor" stroke-width="1.5" stroke-linecap="round" stroke-linejoin="round"/>
    <path d="m3 17 5.908-4.907a.43.43 0 0 1 .573.035l3.327 3.33 3.118-2.246a.423.423 0 0 1 .495 0L22 17" stroke="currentColor" stroke-width="1.5" stroke-linecap="round" stroke-linejoin="round"/>
    <path d="M16.5 9a1.5 1.5 0 1 0 0-3 1.5 1.5 0 0 0 0 3z" stroke="currentColor" stroke-width="1.3" stroke-linecap="round" stroke-linejoin="round"/>
</svg>
