<svg width="24" height="24" viewBox="0 0 24 24" fill="none" xmlns="http://www.w3.org/2000/svg">
    <path d="M10 21h-.75v.75H10V21zm4 0v.75h.75V21H14zm-8 0v.75h.75V21H6zm-4 0h-.75v.75H2V21zm20 0v.75h.75V21H22zm-4 0h-.75v.75H18V21zM10.75 4a.25.25 0 0 1 .25-.25v-1.5A1.75 1.75 0 0 0 9.25 4h1.5zm0 17V4h-1.5v17h1.5zm3.25-.75h-4v1.5h4v-1.5zM13.25 4v17h1.5V4h-1.5zM13 3.75a.25.25 0 0 1 .25.25h1.5A1.75 1.75 0 0 0 13 2.25v1.5zm-2 0h2v-1.5h-2v1.5zm-8 6.5A1.75 1.75 0 0 0 1.25 12h1.5a.25.25 0 0 1 .25-.25v-1.5zm2 0H3v1.5h2v-1.5zM6.75 12A1.75 1.75 0 0 0 5 10.25v1.5a.25.25 0 0 1 .25.25h1.5zm0 9v-9h-1.5v9h1.5zM2 21.75h4v-1.5H2v1.5zM1.25 12v9h1.5v-9h-1.5zM19 13.25A1.75 1.75 0 0 0 17.25 15h1.5a.25.25 0 0 1 .25-.25v-1.5zm2 0h-2v1.5h2v-1.5zM22.75 15A1.75 1.75 0 0 0 21 13.25v1.5a.25.25 0 0 1 .25.25h1.5zm0 6v-6h-1.5v6h1.5zm-4.75.75h4v-1.5h-4v1.5zM17.25 15v6h1.5v-6h-1.5z" fill="currentColor"/>
</svg>
