<svg width="72" height="72" viewBox="0 0 72 72" fill="none" xmlns="http://www.w3.org/2000/svg">
    <mask id="clfvy1d2oa" style="mask-type:alpha" maskUnits="userSpaceOnUse" x="0" y="0" width="72" height="72">
        <path fill="#fff" d="M0 0h72v72H0z"/>
    </mask>
    <g mask="url(#clfvy1d2oa)">
        <path d="M.015 29.363c0 2.339 1.3 3.21 4.004 5.427 5.731 4.678 9.613 8.561 14.84 15.288 2.338 3.012 6.464 6.283 11.522 6.1 7.397-.245 10.347-3.883 16.017-7.46 5.853-3.7 10.346-4.557 18.476-9.25 8.13-4.693 9.674-17 2.705-24.094-4.738-4.984-14.595-6.528-20.937-.245-7.519 7.4-9.613 9.678-17.437 12.323-9.185 2.277-17.499.305-21.442-1.055-1.237-.428-2.582-1.04-3.82-.979C1.788 25.541 0 27.207 0 29.363" fill="#E5E5EA"/>
    </g>
</svg>
