<svg width="24" height="24" viewBox="0 0 24 24" fill="none" xmlns="http://www.w3.org/2000/svg">
    <path fill-rule="evenodd" clip-rule="evenodd" d="M15 4.25a.75.75 0 0 1 .75.75v2a.75.75 0 0 1-1.5 0V5a.75.75 0 0 1 .75-.75zm0 6a.75.75 0 0 1 .75.75v2a.75.75 0 0 1-1.5 0v-2a.75.75 0 0 1 .75-.75zm.75 6.75a.75.75 0 0 0-1.5 0v2a.75.75 0 0 0 1.5 0v-2z" fill="#000"/>
    <path d="M19 5H5a2 2 0 0 0-2 2v10a2 2 0 0 0 2 2h14a2 2 0 0 0 2-2V7a2 2 0 0 0-2-2z" stroke="#000" stroke-width="1.5" stroke-linecap="round" stroke-linejoin="round"/>
</svg>
