<svg width="86" height="70" viewBox="0 0 86 70" fill="none" xmlns="http://www.w3.org/2000/svg">
    <g opacity=".3" stroke="#fff">
        <circle cx="44" cy="35" r="34.5"/>
        <circle cx="44" cy="35" r="31.75" stroke-width=".5"/>
        <circle cx="44" cy="35" r="19.75" stroke-width=".5"/>
    </g>
    <mask id="6s55cayaua" fill="#fff">
        <path d="M2 19h84v33H2V19z"/>
    </mask>
    <path d="M2 19h84v33H2V19z" fill="#000"/>
    <path d="M2 20h84v-2H2v2zm84 31H2v2h84v-2z" fill="#fff" mask="url(#6s55cayaua)"/>
    <path d="M1.342 30.128h6.832v9.552H1.342v-9.552zm5.184 1.328H2.99v6.896h3.536v-6.896zm3.952-2.752h1.68v14.624h-1.68V28.704zm1.296 5.696h2.656v1.392h-2.656V34.4zm13.002-5.696h1.68v8.224h-1.68v-8.224zm1.216 3.392h2.528v1.376h-2.527v-1.376zM20.665 29.6h1.776c0 3.776-2.495 6.416-6.816 7.568l-.655-1.328c3.696-.976 5.696-2.976 5.696-5.44v-.8zm-5.04 0h6.016v1.344h-6.016V29.6zm1.504 7.968h9.328v5.584h-9.328v-5.584zm7.68 1.344h-6.032v2.896h6.032v-2.896zm5.531-4.08h7.552v1.36H30.34v-1.36zm2.896 1.088h1.68v3.248h-1.68V35.92zm-2.896-5.872h7.472v1.344H32.02v3.888h-1.68v-5.232zm9.28-1.36h1.68v14.656h-1.68V28.688zM29.54 40.304l-.208-1.376c2.832 0 6.352-.032 9.408-.384l.128 1.232c-3.184.496-6.576.544-9.328.528zm17.547-2.768h1.296v.72c0 2.08-1.104 4.064-3.296 4.88l-.832-1.232c1.872-.672 2.832-2.208 2.832-3.648v-.72zm.4 0h1.232v.72c0 1.472.784 3.04 2.576 3.776l-.704 1.248c-2.208-.848-3.104-2.96-3.104-5.024v-.72zm4.976 0h1.216v.72c0 1.872-.912 4.112-3.088 5.024l-.704-1.248c1.776-.816 2.576-2.48 2.576-3.776v-.72zm.368 0h1.28v.72c0 1.536.928 3.024 2.848 3.648l-.848 1.232c-2.208-.784-3.28-2.704-3.28-4.88v-.72zm-2.192-5.296h3.68v1.376h-3.68V32.24zm-3.152-2.752c2.16 0 3.792 1.44 3.792 3.472 0 2.016-1.632 3.456-3.792 3.456-2.176 0-3.792-1.44-3.792-3.456 0-2.032 1.616-3.472 3.792-3.472zm0 1.392c-1.264 0-2.192.832-2.192 2.08 0 1.232.928 2.064 2.192 2.064 1.248 0 2.192-.832 2.192-2.064 0-1.248-.944-2.08-2.192-2.08zm6.432-2.176h1.68v8.272h-1.68v-8.272zm7.723 1.072c2.16 0 3.696 2 3.696 5.152s-1.536 5.168-3.696 5.168-3.696-2.016-3.696-5.168 1.536-5.152 3.696-5.152zm0 1.52c-1.248 0-2.096 1.36-2.096 3.632 0 2.288.848 3.664 2.096 3.664 1.264 0 2.112-1.376 2.112-3.664 0-2.272-.848-3.632-2.112-3.632zm6.528-2.608h1.664v14.656h-1.664V28.688zm-3.344 5.456h4.064v1.344h-4.064v-1.344zm10.186 2.048h1.665v4.24H75.01v-4.24zm5.36 0h1.68v4.24h-1.68v-4.24zm-8.447 3.968H85.17v1.376H71.923V40.16zm6.591-10.624c3.12 0 5.376 1.504 5.376 3.84 0 2.32-2.256 3.824-5.376 3.824-3.12 0-5.376-1.504-5.376-3.824 0-2.336 2.257-3.84 5.377-3.84zm0 1.312c-2.207 0-3.743.976-3.743 2.528 0 1.536 1.535 2.512 3.743 2.512 2.209 0 3.745-.976 3.745-2.512 0-1.552-1.537-2.528-3.745-2.528z" fill="#fff"/>
</svg>
