<svg width="24" height="24" viewBox="0 0 24 24" fill="none" xmlns="http://www.w3.org/2000/svg">
    <g clip-path="url(#m27aifmc8a)" stroke="#000">
        <path d="M15 9.5 14 12" stroke-width="1.5" stroke-linecap="round" stroke-linejoin="round"/>
        <circle cx="10.75" cy="5.25" r="2.75" stroke-width="1.4"/>
        <path d="M6.5 9.5 2.137 20.845a1 1 0 0 0 1.109 1.343L15.5 20" stroke-width="1.5" stroke-linecap="round" stroke-linejoin="round"/>
        <path d="M21.657 7.143 19.93 2.826a.5.5 0 0 0-.864-.114l-2.59 3.453a.5.5 0 0 0 .302.79l4.317.864a.5.5 0 0 0 .562-.676zM16 15l3 3 3-3-3-3-3 3z" stroke-width="1.4" stroke-linejoin="round"/>
    </g>
    <defs>
        <clipPath id="m27aifmc8a">
            <path fill="#fff" d="M0 0h24v24H0z"/>
        </clipPath>
    </defs>
</svg>
