<svg width="36" height="36" viewBox="0 0 36 36" fill="none" xmlns="http://www.w3.org/2000/svg">
    <path d="M1.402 13.365c.1.979.59 1.468 1.157 1.501.367-.867.611-1.846.634-2.758.01-.901-.234-1.557-.779-1.757-.7.845-1.101 2.046-1.012 3.014zM4.602 14.432c-.578.523-1.212.745-1.735.512.056-.923.534-1.891 1.224-2.392.69-.511 1.357-.444 1.79-.077-.255.723-.69 1.434-1.268 1.957h-.01zM.486 18.138c.445.945 1.1 1.279 1.702 1.123.1-.99.01-2.046-.29-2.959-.3-.9-.812-1.468-1.434-1.479-.412 1.068-.412 2.38.01 3.315h.012zM4.146 18.147c-.4.723-1.012 1.135-1.623 1.079-.234-.945-.09-2.058.456-2.792.534-.745 1.234-.912 1.801-.7 0 .823-.21 1.69-.634 2.413zM1.134 23.254c.779.812 1.58.89 2.147.512-.245-1.023-.701-2.047-1.302-2.859-.623-.812-1.312-1.212-1.968-1.012-.09 1.213.389 2.547 1.123 3.36zM4.918 21.974c-.19.834-.657 1.468-1.29 1.646-.568-.845-.812-2.013-.479-2.925.3-.912.979-1.312 1.646-1.279.245.834.356 1.713.134 2.57l-.011-.012zM3.83 28.19c1.157.477 1.991.155 2.347-.49-.723-.846-1.557-1.658-2.502-2.214-.935-.556-1.791-.712-2.392-.267.39 1.268 1.39 2.492 2.536 2.97h.011zM6.987 25.232c.122.846-.033 1.669-.567 2.158-.946-.511-1.646-1.59-1.669-2.591-.033-1.012.523-1.646 1.213-1.88.545.667.9 1.446 1.023 2.302v.011zM9.264 31.496c.69-.122 1.168-.478 1.434-.812.267-.356.345-.745.278-1.146-1.167-.211-2.369-.389-3.548-.411-1.179-.011-2.113.256-2.447.979 1.068 1.09 2.903 1.712 4.283 1.39zM10.138 26.87c.511.645.945 1.435.834 2.236-1.112.244-2.402-.3-2.914-1.213-.534-.912-.256-1.768.278-2.347.734.278 1.28.668 1.802 1.324zM4.323 9.959c.511-.667 1.257-.99 1.813-.957-.045.579-.312 1.202-.768 1.78-.456.567-1 .99-1.557 1.168-.167-.545-.022-1.335.49-1.991h.022zM34.598 13.365c-.1.979-.59 1.468-1.157 1.501-.367-.867-.611-1.846-.634-2.758-.01-.901.234-1.557.779-1.757.7.845 1.101 2.046 1.012 3.014zM31.398 14.432c.578.523 1.212.745 1.735.512-.056-.923-.534-1.891-1.224-2.392-.69-.511-1.357-.444-1.79-.077.255.723.69 1.434 1.268 1.957h.01zM35.514 18.138c-.445.945-1.1 1.279-1.702 1.123-.1-.99-.01-2.046.29-2.959.3-.9.812-1.468 1.434-1.479.412 1.068.412 2.38-.01 3.315h-.012zM31.854 18.147c.4.723 1.012 1.135 1.623 1.079.234-.945.09-2.058-.456-2.792-.534-.745-1.234-.912-1.802-.7 0 .823.212 1.69.634 2.413zM34.866 23.254c-.779.812-1.58.89-2.147.512.245-1.023.701-2.047 1.302-2.859.623-.812 1.312-1.212 1.968-1.012.09 1.213-.389 2.547-1.123 3.36zM31.082 21.974c.19.834.656 1.468 1.29 1.646.568-.845.812-2.013.479-2.925-.3-.912-.979-1.312-1.646-1.279-.245.834-.356 1.713-.134 2.57l.011-.012zM32.17 28.19c-1.157.477-1.991.155-2.347-.49.723-.846 1.557-1.658 2.502-2.214.935-.556 1.791-.712 2.392-.267-.39 1.268-1.39 2.492-2.536 2.97h-.011zM29.013 25.232c-.122.846.033 1.669.567 2.158.946-.511 1.646-1.59 1.669-2.591.033-1.012-.523-1.646-1.213-1.88a4.658 4.658 0 0 0-1.023 2.302v.011zM26.736 31.496c-.69-.122-1.168-.478-1.434-.812a1.446 1.446 0 0 1-.279-1.146c1.168-.211 2.37-.389 3.549-.411 1.179-.011 2.113.256 2.447.979-1.068 1.09-2.903 1.712-4.283 1.39zM25.862 26.87c-.511.645-.945 1.435-.834 2.236 1.112.244 2.402-.3 2.914-1.213.534-.912.256-1.768-.278-2.347-.734.278-1.28.668-1.802 1.324zM31.677 9.959c-.511-.667-1.257-.99-1.813-.957.045.579.312 1.202.768 1.78.456.567 1 .99 1.557 1.168.167-.545.022-1.335-.49-1.991h-.022z" fill="#09F"/>
</svg>
