<svg width="24" height="24" viewBox="0 0 24 24" fill="none" xmlns="http://www.w3.org/2000/svg">
    <path d="M2.5 4.5a2 2 0 0 1 2-2h15a2 2 0 0 1 2 2v15a2 2 0 0 1-2 2h-15a2 2 0 0 1-2-2v-15z" stroke="currentColor" stroke-width="1.5" stroke-linejoin="round"/>
    <path d="m13.425 15.472-.52.541a.75.75 0 0 0 1.04 0l-.52-.541zm.99-.95-.52-.541.52.54zm-5.243-3.133-.52.54.52-.54zm-6.13 4.6 3.84-4.02-1.084-1.037-3.84 4.022 1.084 1.036zm5.61-4.06 4.254 4.084 1.038-1.082-4.253-4.083-1.039 1.082zm5.292 4.084.99-.95-1.038-1.082-.99.95 1.038 1.082zm2.722-.95 4.315 4.142 1.038-1.082-4.314-4.142-1.04 1.082zm-1.732 0a1.25 1.25 0 0 1 1.732 0l1.038-1.082a2.75 2.75 0 0 0-3.808 0l1.038 1.082zm-8.051-3.095a1.25 1.25 0 0 1 1.77-.038l1.038-1.082a2.75 2.75 0 0 0-3.893.084l1.085 1.036z" fill="currentColor"/>
    <circle cx="17" cy="7" r=".75" fill="currentColor" stroke="currentColor" stroke-width=".5"/>
</svg>
