<svg width="16" height="16" viewBox="0 0 16 16" fill="none" xmlns="http://www.w3.org/2000/svg">
    <mask id="82418tv5ba" style="mask-type:alpha" maskUnits="userSpaceOnUse" x="1" y="1" width="15" height="14">
        <path d="M4.333 6.833V13.5a.833.833 0 0 1-.833.833H1.833A.834.834 0 0 1 1 13.5V7.667a.833.833 0 0 1 .833-.834h2.5A3.333 3.333 0 0 0 7.667 3.5v-.833a1.667 1.667 0 1 1 3.333 0v4.166h2.5A1.667 1.667 0 0 1 15.167 8.5l-.834 4.167c-.12.51-.347.95-.648 1.25-.3.301-.658.447-1.018.416H6.833a2.5 2.5 0 0 1-2.5-2.5" fill="#333"/>
    </mask>
    <g mask="url(#82418tv5ba)">
        <path d="M4.333 6.833V13.5a.833.833 0 0 1-.833.833H1.833A.834.834 0 0 1 1 13.5V7.667a.833.833 0 0 1 .833-.834h2.5A3.333 3.333 0 0 0 7.667 3.5v-.833a1.667 1.667 0 1 1 3.333 0v4.166h2.5A1.667 1.667 0 0 1 15.167 8.5l-.834 4.167c-.12.51-.347.95-.648 1.25-.3.301-.658.447-1.018.416H6.833a2.5 2.5 0 0 1-2.5-2.5" fill="#333"/>
        <path d="M4.333 6.833V14.5" stroke="#fff" stroke-linecap="round" stroke-linejoin="round"/>
    </g>
</svg>
